G04 DipTrace 2.4.0.2*
%INBottomSilk.gbr*%
%MOIN*%
%ADD33C,0.0124*%
%FSLAX44Y44*%
G04*
G70*
G90*
G75*
G01*
%LNBotSilk*%
%LPD*%
X25029Y5296D2*
D33*
Y6100D1*
X25335Y5296D1*
X25641Y6100D1*
Y5296D1*
X24782Y6100D2*
X24476Y5717D1*
Y5296D1*
X24170Y6100D2*
X24476Y5717D1*
X23923Y5697D2*
X23481D1*
X23234Y6100D2*
Y5296D1*
X22889D1*
X22774Y5335D1*
X22736Y5373D1*
X22698Y5449D1*
Y5564D1*
X22736Y5641D1*
X22774Y5679D1*
X22889Y5717D1*
X22774Y5756D1*
X22736Y5794D1*
X22698Y5870D1*
Y5947D1*
X22736Y6023D1*
X22774Y6062D1*
X22889Y6100D1*
X23234D1*
Y5717D2*
X22889D1*
X22451Y6100D2*
Y5526D1*
X22413Y5411D1*
X22336Y5335D1*
X22221Y5296D1*
X22145D1*
X22030Y5335D1*
X21953Y5411D1*
X21915Y5526D1*
Y6100D1*
X21400D2*
Y5296D1*
X21668Y6100D2*
X21132D1*
X20885D2*
Y5296D1*
X20426D1*
X19682Y6100D2*
X20179D1*
Y5296D1*
X19682D1*
X20179Y5717D2*
X19873D1*
X19435D2*
X19091D1*
X18976Y5756D1*
X18937Y5794D1*
X18899Y5870D1*
Y5947D1*
X18937Y6023D1*
X18976Y6062D1*
X19091Y6100D1*
X19435D1*
Y5296D1*
X19167Y5717D2*
X18899Y5296D1*
X17875Y5679D2*
X17530D1*
X17416Y5717D1*
X17377Y5756D1*
X17339Y5832D1*
Y5947D1*
X17377Y6023D1*
X17416Y6062D1*
X17530Y6100D1*
X17875D1*
Y5296D1*
X17092Y6100D2*
X17054Y6062D1*
X17015Y6100D1*
X17054Y6138D1*
X17092Y6100D1*
X17054Y5832D2*
Y5296D1*
X16768Y5832D2*
X16347Y5296D1*
Y5832D2*
X16768Y5296D1*
X16100Y5602D2*
X15641D1*
Y5679D1*
X15679Y5756D1*
X15717Y5794D1*
X15794Y5832D1*
X15909D1*
X15985Y5794D1*
X16062Y5717D1*
X16100Y5602D1*
Y5526D1*
X16062Y5411D1*
X15985Y5335D1*
X15909Y5296D1*
X15794D1*
X15717Y5335D1*
X15641Y5411D1*
X15394Y6100D2*
Y5296D1*
X14611Y5985D2*
X14687Y6062D1*
X14802Y6100D1*
X14955D1*
X15070Y6062D1*
X15147Y5985D1*
Y5909D1*
X15108Y5832D1*
X15070Y5794D1*
X14994Y5756D1*
X14764Y5679D1*
X14687Y5641D1*
X14649Y5602D1*
X14611Y5526D1*
Y5411D1*
X14687Y5335D1*
X14802Y5296D1*
X14955D1*
X15070Y5335D1*
X15147Y5411D1*
X14249Y6100D2*
Y5449D1*
X14211Y5335D1*
X14134Y5296D1*
X14058D1*
X14364Y5832D2*
X14096D1*
X13811Y6100D2*
X13773Y6062D1*
X13734Y6100D1*
X13773Y6138D1*
X13811Y6100D1*
X13773Y5832D2*
Y5296D1*
X13027Y5717D2*
X13104Y5794D1*
X13181Y5832D1*
X13295D1*
X13372Y5794D1*
X13448Y5717D1*
X13487Y5602D1*
Y5526D1*
X13448Y5411D1*
X13372Y5335D1*
X13295Y5296D1*
X13181D1*
X13104Y5335D1*
X13027Y5411D1*
X12780Y6100D2*
Y5296D1*
X12397Y5832D2*
X12780Y5449D1*
X12627Y5602D2*
X12359Y5296D1*
X11335Y6100D2*
X11029Y5296D1*
X10723Y6100D1*
X10246Y6099D2*
X10361Y6061D1*
X10438Y5946D1*
X10476Y5755D1*
Y5640D1*
X10438Y5449D1*
X10361Y5334D1*
X10246Y5296D1*
X10170D1*
X10055Y5334D1*
X9979Y5449D1*
X9940Y5640D1*
Y5755D1*
X9979Y5946D1*
X10055Y6061D1*
X10170Y6099D1*
X10246D1*
X9979Y5946D2*
X10438Y5449D1*
X9655Y5373D2*
X9693Y5334D1*
X9655Y5296D1*
X9616Y5334D1*
X9655Y5373D1*
X9369Y5946D2*
X9292Y5985D1*
X9177Y6099D1*
Y5296D1*
X8471Y5832D2*
Y5296D1*
Y5717D2*
X8547Y5794D1*
X8624Y5832D1*
X8738D1*
X8815Y5794D1*
X8891Y5717D1*
X8930Y5602D1*
Y5526D1*
X8891Y5411D1*
X8815Y5335D1*
X8738Y5296D1*
X8624D1*
X8547Y5335D1*
X8471Y5411D1*
M02*
