G04 DipTrace 2.4.0.2*
%INBottom.gbr*%
%MOIN*%
%ADD13C,0.03*%
%ADD14C,0.007*%
%ADD18C,0.08*%
%ADD20C,0.04*%
%FSLAX44Y44*%
G04*
G70*
G90*
G75*
G01*
%LNBottom*%
%LPD*%
X28340Y5740D2*
D13*
X26640D1*
X25990Y6390D1*
X7190Y5090D2*
X5520D1*
X4870Y5740D1*
X8040Y6390D2*
X9990D1*
X11290Y5090D1*
X13190D1*
X13990Y6390D2*
X15990D1*
X17290Y5090D1*
X19190D1*
X20040Y6390D2*
X22090D1*
X23390Y5090D1*
X25190D1*
D20*
X8040Y6390D3*
X13990D3*
X20040D3*
X25190Y5090D3*
X19190D3*
X13190D3*
X7190D3*
X25990Y6390D3*
X5990Y4540D3*
X11990D3*
X17990D3*
X23990D3*
X5192Y7236D2*
D14*
X28019D1*
X5281Y7168D2*
X27930D1*
X5343Y7099D2*
X27868D1*
X5388Y7030D2*
X27822D1*
X5422Y6962D2*
X27789D1*
X5445Y6893D2*
X27766D1*
X5459Y6824D2*
X27752D1*
X5464Y6755D2*
X7904D1*
X8177D2*
X13854D1*
X14127D2*
X19904D1*
X20176D2*
X25854D1*
X26126D2*
X27745D1*
X5462Y6687D2*
X7783D1*
X10158D2*
X13733D1*
X16158D2*
X19784D1*
X22258D2*
X25734D1*
X26247D2*
X27747D1*
X5452Y6618D2*
X7720D1*
X10246D2*
X13670D1*
X16246D2*
X19719D1*
X22346D2*
X25669D1*
X26310D2*
X27758D1*
X5433Y6549D2*
X7679D1*
X10315D2*
X13629D1*
X16315D2*
X19680D1*
X22415D2*
X25630D1*
X26351D2*
X27777D1*
X5404Y6481D2*
X7656D1*
X10384D2*
X13606D1*
X16384D2*
X19656D1*
X22484D2*
X25606D1*
X26383D2*
X27805D1*
X5365Y6412D2*
X7645D1*
X10453D2*
X13595D1*
X16452D2*
X19646D1*
X22553D2*
X25596D1*
X26452D2*
X27845D1*
X5311Y6343D2*
X7648D1*
X10521D2*
X13598D1*
X16521D2*
X19648D1*
X22621D2*
X25598D1*
X26521D2*
X27899D1*
X5236Y6275D2*
X7663D1*
X10590D2*
X13613D1*
X16590D2*
X19662D1*
X22690D2*
X25612D1*
X26590D2*
X27974D1*
X5235Y6206D2*
X7691D1*
X10658D2*
X13641D1*
X16659D2*
X19692D1*
X22759D2*
X25642D1*
X26659D2*
X27975D1*
X5310Y6137D2*
X7739D1*
X10727D2*
X13689D1*
X16728D2*
X19739D1*
X22828D2*
X25689D1*
X26727D2*
X27899D1*
X5365Y6069D2*
X7816D1*
X10796D2*
X13766D1*
X16796D2*
X19817D1*
X22896D2*
X25767D1*
X5404Y6000D2*
X9895D1*
X10864D2*
X15896D1*
X16864D2*
X21995D1*
X22964D2*
X25896D1*
X5433Y5931D2*
X9964D1*
X10933D2*
X15964D1*
X16933D2*
X22064D1*
X23033D2*
X25965D1*
X5452Y5863D2*
X10033D1*
X11002D2*
X16033D1*
X17002D2*
X22133D1*
X23102D2*
X26032D1*
X5462Y5794D2*
X10102D1*
X11071D2*
X16101D1*
X17071D2*
X22201D1*
X23171D2*
X26101D1*
X5464Y5725D2*
X10170D1*
X11140D2*
X16170D1*
X17139D2*
X22270D1*
X23240D2*
X26170D1*
X5459Y5656D2*
X10239D1*
X11208D2*
X16239D1*
X17208D2*
X22339D1*
X23308D2*
X26239D1*
X5507Y5588D2*
X10308D1*
X11276D2*
X16308D1*
X17277D2*
X22408D1*
X23377D2*
X26308D1*
X5576Y5519D2*
X10377D1*
X11345D2*
X16377D1*
X17346D2*
X22477D1*
X23446D2*
X26376D1*
X5644Y5450D2*
X7041D1*
X7340D2*
X10445D1*
X11414D2*
X13040D1*
X13339D2*
X16445D1*
X17415D2*
X19040D1*
X19340D2*
X22544D1*
X23514D2*
X25040D1*
X25340D2*
X26459D1*
X7453Y5382D2*
X10513D1*
X13452D2*
X16514D1*
X19452D2*
X22613D1*
X25453D2*
X27867D1*
X4382Y5313D2*
X4459D1*
X7514D2*
X10582D1*
X13514D2*
X16582D1*
X19515D2*
X22682D1*
X25514D2*
X27929D1*
X28751D2*
X28798D1*
X4382Y5244D2*
X4547D1*
X7552D2*
X10651D1*
X13553D2*
X16651D1*
X19553D2*
X22751D1*
X25552D2*
X28018D1*
X28663D2*
X28798D1*
X4382Y5176D2*
X4699D1*
X7575D2*
X10720D1*
X13576D2*
X16720D1*
X19575D2*
X22820D1*
X25575D2*
X28169D1*
X28511D2*
X28798D1*
X4382Y5107D2*
X5018D1*
X7584D2*
X10789D1*
X13584D2*
X16788D1*
X19585D2*
X22889D1*
X25584D2*
X28798D1*
X4382Y5038D2*
X5087D1*
X7581D2*
X10857D1*
X13581D2*
X16857D1*
X19581D2*
X22957D1*
X25582D2*
X28798D1*
X4382Y4970D2*
X5156D1*
X7565D2*
X10926D1*
X13566D2*
X16926D1*
X19566D2*
X23026D1*
X25565D2*
X28798D1*
X4382Y4901D2*
X5225D1*
X7536D2*
X10994D1*
X13535D2*
X16995D1*
X19535D2*
X23095D1*
X25536D2*
X28798D1*
X4382Y4832D2*
X5295D1*
X7487D2*
X11064D1*
X13487D2*
X17065D1*
X19486D2*
X23165D1*
X25486D2*
X28798D1*
X4382Y4764D2*
X5426D1*
X7406D2*
X11197D1*
X13406D2*
X17197D1*
X19406D2*
X23297D1*
X25407D2*
X28798D1*
X4382Y4695D2*
X28798D1*
X4382Y4626D2*
X28798D1*
X4382Y4557D2*
X28798D1*
X4382Y4489D2*
X28798D1*
X4382Y4420D2*
X28798D1*
X4382Y4351D2*
X28798D1*
X4382Y4283D2*
X28798D1*
X4382Y4214D2*
X28798D1*
X5457Y5705D2*
X5449Y5639D1*
X5660Y5428D1*
X7000D1*
X7046Y5450D1*
X7113Y5470D1*
X7183Y5478D1*
X7252Y5473D1*
X7320Y5455D1*
X7383Y5426D1*
X7441Y5386D1*
X7490Y5336D1*
X7529Y5278D1*
X7557Y5214D1*
X7574Y5146D1*
X7578Y5090D1*
X7571Y5020D1*
X7553Y4953D1*
X7522Y4890D1*
X7481Y4834D1*
X7430Y4786D1*
X7372Y4747D1*
X7307Y4720D1*
X7239Y4705D1*
X7169Y4703D1*
X7100Y4713D1*
X7034Y4735D1*
X7000Y4752D1*
X5520D1*
X5485Y4754D1*
X5450Y4759D1*
X5417Y4768D1*
X5384Y4781D1*
X5353Y4797D1*
X5323Y4815D1*
X5281Y4851D1*
X4971Y5161D1*
X4918Y5154D1*
X4848Y5153D1*
X4779Y5159D1*
X4710Y5174D1*
X4644Y5197D1*
X4581Y5228D1*
X4523Y5266D1*
X4469Y5310D1*
X4421Y5361D1*
X4375Y5424D1*
Y4175D1*
X28805D1*
Y5381D1*
X28760Y5329D1*
X28709Y5282D1*
X28652Y5242D1*
X28590Y5208D1*
X28525Y5182D1*
X28458Y5164D1*
X28388Y5154D1*
X28318Y5153D1*
X28249Y5159D1*
X28180Y5174D1*
X28114Y5197D1*
X28051Y5228D1*
X27993Y5266D1*
X27939Y5310D1*
X27891Y5361D1*
X27859Y5402D1*
X26640D1*
X26605Y5404D1*
X26570Y5409D1*
X26537Y5418D1*
X26504Y5431D1*
X26473Y5447D1*
X26443Y5465D1*
X26401Y5501D1*
X25885Y6017D1*
X25834Y6035D1*
X25773Y6069D1*
X25718Y6113D1*
X25673Y6166D1*
X25638Y6227D1*
X25615Y6293D1*
X25603Y6362D1*
X25604Y6432D1*
X25618Y6500D1*
X25644Y6565D1*
X25681Y6624D1*
X25728Y6676D1*
X25784Y6718D1*
X25846Y6750D1*
X25913Y6770D1*
X25983Y6778D1*
X26052Y6773D1*
X26120Y6755D1*
X26183Y6726D1*
X26241Y6686D1*
X26290Y6636D1*
X26329Y6578D1*
X26357Y6514D1*
X26363Y6494D1*
X26780Y6078D1*
X27860D1*
X27902Y6131D1*
X27951Y6181D1*
X28006Y6224D1*
X28031Y6240D1*
X27965Y6287D1*
X27914Y6335D1*
X27869Y6389D1*
X27830Y6447D1*
X27799Y6510D1*
X27776Y6576D1*
X27760Y6644D1*
X27753Y6713D1*
X27754Y6783D1*
X27763Y6853D1*
X27781Y6920D1*
X27806Y6986D1*
X27839Y7047D1*
X27879Y7105D1*
X27926Y7157D1*
X27978Y7203D1*
X28036Y7243D1*
X28098Y7275D1*
X28163Y7300D1*
X28175Y7305D1*
X5038Y7303D1*
X5103Y7279D1*
X5166Y7248D1*
X5224Y7209D1*
X5277Y7164D1*
X5325Y7112D1*
X5366Y7056D1*
X5400Y6995D1*
X5426Y6930D1*
X5445Y6862D1*
X5455Y6793D1*
X5458Y6740D1*
X5454Y6670D1*
X5441Y6601D1*
X5421Y6534D1*
X5392Y6470D1*
X5357Y6410D1*
X5314Y6355D1*
X5265Y6305D1*
X5211Y6261D1*
X5179Y6240D1*
X5224Y6209D1*
X5277Y6164D1*
X5325Y6112D1*
X5366Y6056D1*
X5400Y5995D1*
X5426Y5930D1*
X5445Y5862D1*
X5455Y5793D1*
X5458Y5740D1*
X5457Y5705D1*
X8230Y6052D2*
X8190Y6032D1*
X8123Y6011D1*
X8054Y6002D1*
X7984Y6006D1*
X7916Y6022D1*
X7852Y6051D1*
X7794Y6090D1*
X7745Y6139D1*
X7704Y6196D1*
X7675Y6259D1*
X7657Y6327D1*
X7652Y6397D1*
X7660Y6466D1*
X7680Y6533D1*
X7711Y6596D1*
X7753Y6651D1*
X7805Y6698D1*
X7864Y6736D1*
X7929Y6762D1*
X7998Y6775D1*
X8068Y6777D1*
X8137Y6766D1*
X8202Y6742D1*
X8231Y6728D1*
X9990D1*
X10025Y6726D1*
X10060Y6721D1*
X10093Y6712D1*
X10126Y6699D1*
X10157Y6683D1*
X10187Y6665D1*
X10229Y6629D1*
X11430Y5428D1*
X13000D1*
X13046Y5450D1*
X13113Y5470D1*
X13183Y5478D1*
X13252Y5473D1*
X13320Y5455D1*
X13383Y5426D1*
X13441Y5386D1*
X13490Y5336D1*
X13529Y5278D1*
X13557Y5214D1*
X13574Y5146D1*
X13578Y5090D1*
X13571Y5020D1*
X13553Y4953D1*
X13522Y4890D1*
X13481Y4834D1*
X13430Y4786D1*
X13372Y4747D1*
X13307Y4720D1*
X13239Y4705D1*
X13169Y4703D1*
X13100Y4713D1*
X13034Y4735D1*
X13000Y4752D1*
X11290D1*
X11255Y4754D1*
X11220Y4759D1*
X11187Y4768D1*
X11154Y4781D1*
X11123Y4797D1*
X11093Y4815D1*
X11051Y4851D1*
X9850Y6052D1*
X8230D1*
X14180D2*
X14140Y6032D1*
X14073Y6011D1*
X14004Y6002D1*
X13934Y6006D1*
X13866Y6022D1*
X13802Y6051D1*
X13744Y6090D1*
X13695Y6139D1*
X13654Y6196D1*
X13625Y6259D1*
X13607Y6327D1*
X13602Y6397D1*
X13610Y6466D1*
X13630Y6533D1*
X13661Y6596D1*
X13703Y6651D1*
X13755Y6698D1*
X13814Y6736D1*
X13879Y6762D1*
X13948Y6775D1*
X14018Y6777D1*
X14087Y6766D1*
X14152Y6742D1*
X14181Y6728D1*
X15990D1*
X16025Y6726D1*
X16060Y6721D1*
X16093Y6712D1*
X16126Y6699D1*
X16157Y6683D1*
X16187Y6665D1*
X16229Y6629D1*
X17430Y5428D1*
X19000D1*
X19046Y5450D1*
X19113Y5470D1*
X19183Y5478D1*
X19252Y5473D1*
X19320Y5455D1*
X19383Y5426D1*
X19441Y5386D1*
X19490Y5336D1*
X19529Y5278D1*
X19557Y5214D1*
X19574Y5146D1*
X19578Y5090D1*
X19571Y5020D1*
X19553Y4953D1*
X19522Y4890D1*
X19481Y4834D1*
X19430Y4786D1*
X19372Y4747D1*
X19307Y4720D1*
X19239Y4705D1*
X19169Y4703D1*
X19100Y4713D1*
X19034Y4735D1*
X19000Y4752D1*
X17290D1*
X17255Y4754D1*
X17220Y4759D1*
X17187Y4768D1*
X17154Y4781D1*
X17123Y4797D1*
X17093Y4815D1*
X17051Y4851D1*
X15850Y6052D1*
X14180D1*
X20230D2*
X20190Y6032D1*
X20123Y6011D1*
X20054Y6002D1*
X19984Y6006D1*
X19916Y6022D1*
X19852Y6051D1*
X19794Y6090D1*
X19745Y6139D1*
X19704Y6196D1*
X19675Y6259D1*
X19657Y6327D1*
X19652Y6397D1*
X19660Y6466D1*
X19680Y6533D1*
X19711Y6596D1*
X19753Y6651D1*
X19805Y6698D1*
X19864Y6736D1*
X19929Y6762D1*
X19998Y6775D1*
X20068Y6777D1*
X20137Y6766D1*
X20202Y6742D1*
X20231Y6728D1*
X22090D1*
X22125Y6726D1*
X22160Y6721D1*
X22193Y6712D1*
X22226Y6699D1*
X22257Y6683D1*
X22287Y6665D1*
X22329Y6629D1*
X23530Y5428D1*
X24999D1*
X25046Y5450D1*
X25113Y5470D1*
X25183Y5478D1*
X25252Y5473D1*
X25320Y5455D1*
X25383Y5426D1*
X25441Y5386D1*
X25490Y5336D1*
X25529Y5278D1*
X25557Y5214D1*
X25574Y5146D1*
X25578Y5090D1*
X25571Y5020D1*
X25553Y4953D1*
X25522Y4890D1*
X25481Y4834D1*
X25430Y4786D1*
X25372Y4747D1*
X25307Y4720D1*
X25239Y4705D1*
X25169Y4703D1*
X25100Y4713D1*
X25034Y4735D1*
X25000Y4752D1*
X23390D1*
X23355Y4754D1*
X23320Y4759D1*
X23287Y4768D1*
X23254Y4781D1*
X23223Y4797D1*
X23193Y4815D1*
X23151Y4851D1*
X21950Y6052D1*
X20230D1*
D18*
X4870Y4740D3*
Y5740D3*
Y6740D3*
X28340Y4740D3*
Y5740D3*
Y6740D3*
M02*
