G04 DipTrace 2.4.0.2*
%INTop.gbr*%
%MOIN*%
%ADD13C,0.03*%
%ADD14C,0.007*%
%ADD15C,0.01*%
%ADD17R,0.039X0.039*%
%ADD18C,0.08*%
%ADD19R,0.0591X0.0512*%
%ADD20C,0.04*%
%FSLAX44Y44*%
G04*
G70*
G90*
G75*
G01*
%LNTop*%
%LPD*%
X25990Y6390D2*
D13*
X26465D1*
X7190Y5090D2*
X6745D1*
X8040Y6390D2*
X8475D1*
X13190Y5090D2*
X12735D1*
X13990Y6390D2*
X14465D1*
X19190Y5090D2*
X18745D1*
X20040Y6390D2*
X20475D1*
X25190Y5090D2*
X24735D1*
D20*
X8040Y6390D3*
X13990D3*
X20040D3*
X25190Y5090D3*
X19190D3*
X13190D3*
X7190D3*
X25990Y6390D3*
X5990Y4540D3*
X11990D3*
X17990D3*
X23990D3*
X4382Y7236D2*
D14*
X28798D1*
X4382Y7168D2*
X28798D1*
X4382Y7099D2*
X28798D1*
X4382Y7030D2*
X28798D1*
X4382Y6962D2*
X28798D1*
X4382Y6893D2*
X28798D1*
X4382Y6824D2*
X28798D1*
X4382Y6755D2*
X7904D1*
X8865D2*
X13854D1*
X14855D2*
X19904D1*
X20864D2*
X25854D1*
X26855D2*
X28798D1*
X4382Y6687D2*
X7783D1*
X8865D2*
X13733D1*
X14855D2*
X19784D1*
X20864D2*
X25734D1*
X26855D2*
X28798D1*
X4382Y6618D2*
X7720D1*
X8865D2*
X13670D1*
X14855D2*
X19719D1*
X20864D2*
X25669D1*
X26855D2*
X28798D1*
X4382Y6549D2*
X7679D1*
X8865D2*
X13629D1*
X14855D2*
X19680D1*
X20864D2*
X25630D1*
X26855D2*
X28798D1*
X4382Y6481D2*
X7656D1*
X8865D2*
X13606D1*
X14855D2*
X19656D1*
X20864D2*
X25606D1*
X26855D2*
X28798D1*
X4382Y6412D2*
X7645D1*
X8865D2*
X13595D1*
X14855D2*
X19646D1*
X20864D2*
X25596D1*
X26855D2*
X28798D1*
X4382Y6343D2*
X7648D1*
X8865D2*
X13598D1*
X14855D2*
X19648D1*
X20864D2*
X25598D1*
X26855D2*
X28798D1*
X4382Y6275D2*
X4619D1*
X5121D2*
X7663D1*
X8865D2*
X13613D1*
X14855D2*
X19662D1*
X20864D2*
X25612D1*
X26855D2*
X28089D1*
X28591D2*
X28798D1*
X4382Y6206D2*
X4505D1*
X5235D2*
X7691D1*
X8865D2*
X13641D1*
X14855D2*
X19692D1*
X20864D2*
X25642D1*
X26855D2*
X27975D1*
X28705D2*
X28798D1*
X26117Y6773D2*
X26848D1*
Y6175D1*
X27944D1*
X28006Y6224D1*
X28066Y6260D1*
X28130Y6289D1*
X28197Y6310D1*
X28265Y6323D1*
X28335Y6328D1*
X28405Y6324D1*
X28474Y6312D1*
X28541Y6292D1*
X28605Y6265D1*
X28666Y6229D1*
X28721Y6187D1*
X28735Y6175D1*
X28805D1*
Y7305D1*
X4375D1*
Y6175D1*
X4475D1*
X4536Y6224D1*
X4596Y6260D1*
X4660Y6289D1*
X4727Y6310D1*
X4795Y6323D1*
X4865Y6328D1*
X4935Y6324D1*
X5004Y6312D1*
X5071Y6292D1*
X5135Y6265D1*
X5196Y6229D1*
X5251Y6187D1*
X5265Y6175D1*
X7716D1*
X7688Y6227D1*
X7665Y6293D1*
X7653Y6362D1*
X7654Y6432D1*
X7668Y6500D1*
X7694Y6565D1*
X7731Y6624D1*
X7778Y6676D1*
X7834Y6718D1*
X7896Y6750D1*
X7963Y6770D1*
X8033Y6778D1*
X8103Y6773D1*
X8858D1*
Y6175D1*
X10955D1*
X13666D1*
X13638Y6227D1*
X13615Y6293D1*
X13603Y6362D1*
X13604Y6432D1*
X13618Y6500D1*
X13644Y6565D1*
X13681Y6624D1*
X13728Y6676D1*
X13784Y6718D1*
X13846Y6750D1*
X13913Y6770D1*
X13983Y6778D1*
X14052Y6773D1*
X14083Y6766D1*
X14082Y6773D1*
X14848D1*
Y6175D1*
X16730D1*
X19717D1*
X19688Y6227D1*
X19665Y6293D1*
X19653Y6362D1*
X19654Y6432D1*
X19668Y6500D1*
X19694Y6565D1*
X19731Y6624D1*
X19778Y6676D1*
X19834Y6718D1*
X19896Y6750D1*
X19963Y6770D1*
X20033Y6778D1*
X20103Y6773D1*
X20858D1*
Y6175D1*
X21735D1*
X25667D1*
X25638Y6227D1*
X25615Y6293D1*
X25603Y6362D1*
X25604Y6432D1*
X25618Y6500D1*
X25644Y6565D1*
X25681Y6624D1*
X25728Y6676D1*
X25784Y6718D1*
X25846Y6750D1*
X25913Y6770D1*
X25983Y6778D1*
X26052Y6773D1*
X26083Y6766D1*
X26082Y6773D1*
X26117D1*
X4382Y5236D2*
X4560D1*
X5180D2*
X6355D1*
X7556D2*
X12345D1*
X13556D2*
X18355D1*
X19556D2*
X24345D1*
X25556D2*
X28031D1*
X28650D2*
X28798D1*
X4382Y5168D2*
X4729D1*
X5010D2*
X6355D1*
X7576D2*
X12345D1*
X13577D2*
X18355D1*
X19577D2*
X24345D1*
X25577D2*
X28200D1*
X28480D2*
X28798D1*
X4382Y5099D2*
X6355D1*
X7585D2*
X12345D1*
X13584D2*
X18355D1*
X19585D2*
X24345D1*
X25585D2*
X28798D1*
X4382Y5030D2*
X6355D1*
X7580D2*
X12345D1*
X13580D2*
X18355D1*
X19580D2*
X24345D1*
X25581D2*
X28798D1*
X4382Y4962D2*
X6355D1*
X7563D2*
X12345D1*
X13562D2*
X18355D1*
X19563D2*
X24345D1*
X25563D2*
X28798D1*
X4382Y4893D2*
X6355D1*
X7530D2*
X12345D1*
X13531D2*
X18355D1*
X19531D2*
X24345D1*
X25531D2*
X28798D1*
X4382Y4824D2*
X6355D1*
X7479D2*
X12345D1*
X13479D2*
X18355D1*
X19480D2*
X24345D1*
X25479D2*
X28798D1*
X4382Y4755D2*
X6355D1*
X7393D2*
X12345D1*
X13393D2*
X18355D1*
X19393D2*
X24345D1*
X25393D2*
X28798D1*
X4382Y4687D2*
X28798D1*
X4382Y4618D2*
X28798D1*
X4382Y4549D2*
X28798D1*
X4382Y4481D2*
X28798D1*
X4382Y4412D2*
X28798D1*
X4382Y4343D2*
X28798D1*
X4382Y4275D2*
X28798D1*
X4382Y4206D2*
X28798D1*
X25118Y4708D2*
X25048Y4707D1*
X24352D1*
Y5305D1*
X22820D1*
X19514D1*
X19545Y5247D1*
X19567Y5181D1*
X19577Y5112D1*
X19576Y5055D1*
X19564Y4986D1*
X19539Y4921D1*
X19503Y4861D1*
X19457Y4809D1*
X19402Y4765D1*
X19340Y4732D1*
X19273Y4711D1*
X19204Y4702D1*
X19134Y4706D1*
X19058Y4707D1*
X18362D1*
Y5305D1*
X16975D1*
X13513D1*
X13545Y5247D1*
X13567Y5181D1*
X13577Y5112D1*
X13576Y5055D1*
X13564Y4986D1*
X13539Y4921D1*
X13503Y4861D1*
X13457Y4809D1*
X13402Y4765D1*
X13340Y4732D1*
X13273Y4711D1*
X13204Y4702D1*
X13134Y4706D1*
X13118Y4709D1*
Y4707D1*
X12352D1*
Y5305D1*
X10640D1*
X7513D1*
X7545Y5247D1*
X7567Y5181D1*
X7577Y5112D1*
X7576Y5055D1*
X7564Y4986D1*
X7539Y4921D1*
X7503Y4861D1*
X7457Y4809D1*
X7402Y4765D1*
X7340Y4732D1*
X7273Y4711D1*
X7204Y4702D1*
X7134Y4706D1*
X7058Y4707D1*
X6362D1*
Y5305D1*
X5264D1*
X5239Y5282D1*
X5182Y5242D1*
X5120Y5208D1*
X5055Y5182D1*
X4988Y5164D1*
X4918Y5154D1*
X4848Y5153D1*
X4779Y5159D1*
X4710Y5174D1*
X4644Y5197D1*
X4581Y5228D1*
X4523Y5266D1*
X4474Y5305D1*
X4375D1*
Y4175D1*
X28805D1*
Y5305D1*
X28735D1*
X28681Y5261D1*
X28621Y5224D1*
X28558Y5194D1*
X28492Y5172D1*
X28423Y5158D1*
X28353Y5152D1*
X28283Y5155D1*
X28214Y5166D1*
X28147Y5185D1*
X28082Y5212D1*
X28021Y5246D1*
X27965Y5287D1*
X27944Y5305D1*
X25970D1*
X25512D1*
X25529Y5278D1*
X25557Y5214D1*
X25574Y5146D1*
X25578Y5090D1*
X25571Y5020D1*
X25553Y4953D1*
X25522Y4890D1*
X25481Y4834D1*
X25430Y4786D1*
X25372Y4747D1*
X25307Y4720D1*
X25239Y4705D1*
X25169Y4703D1*
X25118Y4709D1*
X6646Y5983D2*
D15*
X6496Y5833D1*
X6929Y5983D2*
X6496Y5550D1*
X7211Y5983D2*
X6726Y5497D1*
X7494Y5983D2*
X7008Y5497D1*
X7777Y5983D2*
X7291Y5497D1*
X8057Y5980D2*
X7574Y5497D1*
X8343Y5983D2*
X7857Y5497D1*
X8626Y5983D2*
X8140Y5497D1*
X8908Y5983D2*
X8423Y5497D1*
X9191Y5983D2*
X8705Y5497D1*
X9474Y5983D2*
X8988Y5497D1*
X9757Y5983D2*
X9271Y5497D1*
X10040Y5983D2*
X9554Y5497D1*
X10323Y5983D2*
X9837Y5497D1*
X10605Y5983D2*
X10120Y5497D1*
X10888Y5983D2*
X10403Y5497D1*
X11171Y5983D2*
X10685Y5497D1*
X11454Y5983D2*
X10968Y5497D1*
X11483Y5729D2*
X11251Y5497D1*
X12585Y5983D2*
X12496Y5894D1*
X12868Y5983D2*
X12496Y5611D1*
X13151Y5983D2*
X12665Y5497D1*
X13434Y5983D2*
X12948Y5497D1*
X13717Y5983D2*
X13233Y5499D1*
X13996Y5979D2*
X13514Y5497D1*
X14282Y5983D2*
X13797Y5497D1*
X14565Y5983D2*
X14079Y5497D1*
X14848Y5983D2*
X14362Y5497D1*
X15131Y5983D2*
X14645Y5497D1*
X15414Y5983D2*
X14928Y5497D1*
X15697Y5983D2*
X15211Y5497D1*
X15979Y5983D2*
X15494Y5497D1*
X16262Y5983D2*
X15777Y5497D1*
X16545Y5983D2*
X16059Y5497D1*
X16828Y5983D2*
X16342Y5497D1*
X17111Y5983D2*
X16625Y5497D1*
X17394Y5983D2*
X16908Y5497D1*
X17484Y5790D2*
X17191Y5497D1*
X18525Y5983D2*
X18497Y5955D1*
X18808Y5983D2*
X18497Y5672D1*
X19091Y5983D2*
X18605Y5497D1*
X19374Y5983D2*
X18888Y5497D1*
X19656Y5983D2*
X19174Y5500D1*
X19939Y5983D2*
X19453Y5497D1*
X20222Y5983D2*
X19736Y5497D1*
X20505Y5983D2*
X20019Y5497D1*
X20788Y5983D2*
X20302Y5497D1*
X21071Y5983D2*
X20585Y5497D1*
X21353Y5983D2*
X20868Y5497D1*
X21636Y5983D2*
X21151Y5497D1*
X21919Y5983D2*
X21433Y5497D1*
X22202Y5983D2*
X21716Y5497D1*
X22485Y5983D2*
X21999Y5497D1*
X22768Y5983D2*
X22282Y5497D1*
X23051Y5983D2*
X22565Y5497D1*
X23333Y5983D2*
X22848Y5497D1*
X23484Y5851D2*
X23130Y5497D1*
X23484Y5568D2*
X23413Y5497D1*
X24748Y5983D2*
X24496Y5731D1*
X25030Y5983D2*
X24545Y5497D1*
X25313Y5983D2*
X24827Y5497D1*
X25596Y5983D2*
X25110Y5497D1*
X25879Y5983D2*
X25393Y5497D1*
X26162Y5983D2*
X25676Y5497D1*
X26445Y5983D2*
X25959Y5497D1*
X26728Y5983D2*
X26242Y5497D1*
X27010Y5983D2*
X26525Y5497D1*
X27293Y5983D2*
X26807Y5497D1*
X27576Y5983D2*
X27090Y5497D1*
X27745Y5869D2*
X27373Y5497D1*
X27747Y5588D2*
X27656Y5497D1*
X27514Y5983D2*
X27729Y5768D1*
X27231Y5983D2*
X27717Y5497D1*
X26949Y5983D2*
X27434Y5497D1*
X26666Y5983D2*
X27152Y5497D1*
X26383Y5983D2*
X26869Y5497D1*
X26100Y5983D2*
X26586Y5497D1*
X25817Y5983D2*
X26303Y5497D1*
X25534Y5983D2*
X26020Y5497D1*
X25251Y5983D2*
X25737Y5497D1*
X24969Y5983D2*
X25454Y5497D1*
X24686Y5983D2*
X25168Y5500D1*
X24496Y5890D2*
X24889Y5497D1*
X24496Y5607D2*
X24606Y5497D1*
X23272Y5983D2*
X23483Y5771D1*
X22989Y5983D2*
X23475Y5497D1*
X22706Y5983D2*
X23192Y5497D1*
X22423Y5983D2*
X22909Y5497D1*
X22140Y5983D2*
X22626Y5497D1*
X21857Y5983D2*
X22343Y5497D1*
X21575Y5983D2*
X22060Y5497D1*
X21292Y5983D2*
X21777Y5497D1*
X21009Y5983D2*
X21495Y5497D1*
X20726Y5983D2*
X21212Y5497D1*
X20443Y5983D2*
X20929Y5497D1*
X20160Y5983D2*
X20646Y5497D1*
X19877Y5983D2*
X20363Y5497D1*
X19595Y5983D2*
X20080Y5497D1*
X19312Y5983D2*
X19798Y5497D1*
X19029Y5983D2*
X19515Y5497D1*
X18746Y5983D2*
X19231Y5498D1*
X18496Y5950D2*
X18949Y5497D1*
X18496Y5667D2*
X18666Y5497D1*
X17332Y5983D2*
X17484Y5831D1*
X17049Y5983D2*
X17484Y5548D1*
X16766Y5983D2*
X17252Y5497D1*
X16483Y5983D2*
X16969Y5497D1*
X16201Y5983D2*
X16686Y5497D1*
X15918Y5983D2*
X16403Y5497D1*
X15635Y5983D2*
X16121Y5497D1*
X15352Y5983D2*
X15838Y5497D1*
X15069Y5983D2*
X15555Y5497D1*
X14786Y5983D2*
X15272Y5497D1*
X14503Y5983D2*
X14989Y5497D1*
X14221Y5983D2*
X14706Y5497D1*
X13938Y5983D2*
X14424Y5497D1*
X13655Y5983D2*
X14141Y5497D1*
X13372Y5983D2*
X13858Y5497D1*
X13089Y5983D2*
X13575Y5497D1*
X12806Y5983D2*
X13292Y5497D1*
X12524Y5983D2*
X13009Y5497D1*
X12496Y5727D2*
X12727Y5497D1*
X11392Y5983D2*
X11484Y5892D1*
X11109Y5983D2*
X11484Y5609D1*
X10827Y5983D2*
X11312Y5497D1*
X10544Y5983D2*
X11029Y5497D1*
X10261Y5983D2*
X10747Y5497D1*
X9978Y5983D2*
X10464Y5497D1*
X9695Y5983D2*
X10181Y5497D1*
X9412Y5983D2*
X9898Y5497D1*
X9129Y5983D2*
X9615Y5497D1*
X8847Y5983D2*
X9332Y5497D1*
X8564Y5983D2*
X9050Y5497D1*
X8281Y5983D2*
X8767Y5497D1*
X7999Y5982D2*
X8484Y5497D1*
X7715Y5983D2*
X8201Y5497D1*
X7432Y5983D2*
X7918Y5497D1*
X7150Y5983D2*
X7635Y5497D1*
X6867Y5983D2*
X7353Y5497D1*
X6584Y5983D2*
X7070Y5497D1*
X6496Y5788D2*
X6787Y5497D1*
X27791Y5490D2*
X27768Y5546D1*
X27744Y5643D1*
X27736Y5742D1*
X27745Y5842D1*
X27770Y5939D1*
X27790Y5990D1*
X26025Y5987D1*
X25975Y5986D1*
X25890Y5990D1*
X24488D1*
X24489Y5674D1*
X24490Y5490D1*
X25136D1*
X25186Y5494D1*
X25244Y5490D1*
X27790Y5492D1*
X6488Y5846D2*
X6489Y5746D1*
X6490Y5490D1*
X7136D1*
X7186Y5494D1*
X7244Y5490D1*
X11492D1*
X11491Y5846D1*
X11490Y5990D1*
X8095D1*
X8025Y5986D1*
X7940Y5990D1*
X6488D1*
X6489Y5674D1*
X6488D1*
X12488Y5846D2*
X12489Y5746D1*
X12490Y5490D1*
X13136D1*
X13186Y5494D1*
X13244Y5490D1*
X17492D1*
X17491Y5846D1*
X17490Y5990D1*
X14045D1*
X13975Y5986D1*
X13890Y5990D1*
X12488D1*
X12489Y5674D1*
X12488D1*
X18488Y5846D2*
X18489Y5746D1*
X18490Y5490D1*
X19136D1*
X19186Y5494D1*
X19244Y5490D1*
X23492D1*
X23491Y5846D1*
X23490Y5990D1*
X20095D1*
X20025Y5986D1*
X19940Y5990D1*
X18488D1*
X18489Y5674D1*
X18488D1*
D17*
X24735Y5090D3*
X26465D3*
Y6390D3*
X24735D3*
X6745Y5090D3*
X8475D3*
Y6390D3*
X6745D3*
X12735Y5090D3*
X14465D3*
Y6390D3*
X12735D3*
X18745Y5090D3*
X20475D3*
Y6390D3*
X18745D3*
D18*
X4870Y4740D3*
Y5740D3*
Y6740D3*
X28340Y4740D3*
Y5740D3*
Y6740D3*
D19*
X5990Y5386D3*
Y6134D3*
X11990Y5386D3*
Y6134D3*
X17990Y5386D3*
Y6134D3*
X23990Y5386D3*
Y6134D3*
M02*
