G04 DipTrace 2.4.0.2*
%INTopSilk.gbr*%
%MOIN*%
%ADD10C,0.0098*%
%ADD16C,0.05*%
%ADD32C,0.0077*%
%FSLAX44Y44*%
G04*
G70*
G90*
G75*
G01*
%LNTopSilk*%
%LPD*%
D16*
X26050Y5490D3*
X8060D3*
X14050D3*
X20060D3*
X5370Y4240D2*
D10*
X4370D1*
Y7240D1*
X5370D2*
X4370D1*
X5370Y4240D2*
Y7240D1*
X28840Y4240D2*
X27840D1*
Y7240D1*
X28840D2*
X27840D1*
X28840Y4240D2*
Y7240D1*
X6246Y4972D2*
X5734D1*
X12246D2*
X11734D1*
X18246D2*
X17734D1*
X24246D2*
X23734D1*
X24842Y7317D2*
D32*
Y6815D1*
X25129D1*
X25594Y7317D2*
X25283D1*
Y6815D1*
X25594D1*
X25283Y7078D2*
X25475D1*
X25748Y7317D2*
Y6815D1*
X25916D1*
X25988Y6839D1*
X26036Y6887D1*
X26060Y6935D1*
X26083Y7006D1*
Y7126D1*
X26060Y7198D1*
X26036Y7245D1*
X25988Y7293D1*
X25916Y7317D1*
X25748D1*
X26238Y7221D2*
X26286Y7245D1*
X26358Y7317D1*
Y6815D1*
X6733Y7317D2*
Y6815D1*
X7020D1*
X7485Y7317D2*
X7174D1*
Y6815D1*
X7485D1*
X7174Y7078D2*
X7365D1*
X7639Y7317D2*
Y6815D1*
X7807D1*
X7878Y6839D1*
X7927Y6887D1*
X7950Y6935D1*
X7974Y7006D1*
Y7126D1*
X7950Y7198D1*
X7927Y7245D1*
X7878Y7293D1*
X7807Y7317D1*
X7639D1*
X8368Y6815D2*
Y7317D1*
X8128Y6982D1*
X8487D1*
X12735Y7317D2*
Y6815D1*
X13022D1*
X13487Y7317D2*
X13176D1*
Y6815D1*
X13487D1*
X13176Y7078D2*
X13367D1*
X13641Y7317D2*
Y6815D1*
X13808D1*
X13880Y6839D1*
X13928Y6887D1*
X13952Y6935D1*
X13976Y7006D1*
Y7126D1*
X13952Y7198D1*
X13928Y7245D1*
X13880Y7293D1*
X13808Y7317D1*
X13641D1*
X14178D2*
X14441D1*
X14298Y7125D1*
X14370D1*
X14417Y7102D1*
X14441Y7078D1*
X14465Y7006D1*
Y6959D1*
X14441Y6887D1*
X14393Y6839D1*
X14322Y6815D1*
X14250D1*
X14178Y6839D1*
X14155Y6863D1*
X14130Y6910D1*
X18745Y7317D2*
Y6815D1*
X19032D1*
X19497Y7317D2*
X19186D1*
Y6815D1*
X19497D1*
X19186Y7078D2*
X19377D1*
X19651Y7317D2*
Y6815D1*
X19818D1*
X19890Y6839D1*
X19938Y6887D1*
X19962Y6935D1*
X19986Y7006D1*
Y7126D1*
X19962Y7198D1*
X19938Y7245D1*
X19890Y7293D1*
X19818Y7317D1*
X19651D1*
X20165Y7197D2*
Y7221D1*
X20188Y7269D1*
X20212Y7293D1*
X20260Y7317D1*
X20356D1*
X20403Y7293D1*
X20427Y7269D1*
X20451Y7221D1*
Y7174D1*
X20427Y7125D1*
X20380Y7054D1*
X20140Y6815D1*
X20475D1*
X5913Y4683D2*
X5889Y4731D1*
X5841Y4779D1*
X5793Y4803D1*
X5698D1*
X5650Y4779D1*
X5602Y4731D1*
X5578Y4683D1*
X5554Y4612D1*
Y4492D1*
X5578Y4420D1*
X5602Y4372D1*
X5650Y4325D1*
X5698Y4300D1*
X5793D1*
X5841Y4325D1*
X5889Y4372D1*
X5913Y4420D1*
X6307Y4300D2*
Y4802D1*
X6067Y4468D1*
X6426D1*
X11925Y4683D2*
X11901Y4731D1*
X11853Y4779D1*
X11805Y4803D1*
X11710D1*
X11662Y4779D1*
X11614Y4731D1*
X11590Y4683D1*
X11566Y4612D1*
Y4492D1*
X11590Y4420D1*
X11614Y4372D1*
X11662Y4325D1*
X11710Y4300D1*
X11805D1*
X11853Y4325D1*
X11901Y4372D1*
X11925Y4420D1*
X12127Y4802D2*
X12390D1*
X12247Y4611D1*
X12318D1*
X12366Y4587D1*
X12390Y4563D1*
X12414Y4492D1*
Y4444D1*
X12390Y4372D1*
X12342Y4324D1*
X12270Y4300D1*
X12198D1*
X12127Y4324D1*
X12103Y4348D1*
X12079Y4396D1*
X17925Y4683D2*
X17901Y4731D1*
X17853Y4779D1*
X17805Y4803D1*
X17710D1*
X17662Y4779D1*
X17614Y4731D1*
X17590Y4683D1*
X17566Y4612D1*
Y4492D1*
X17590Y4420D1*
X17614Y4372D1*
X17662Y4325D1*
X17710Y4300D1*
X17805D1*
X17853Y4325D1*
X17901Y4372D1*
X17925Y4420D1*
X18103Y4683D2*
Y4707D1*
X18127Y4755D1*
X18151Y4778D1*
X18199Y4802D1*
X18295D1*
X18342Y4778D1*
X18366Y4755D1*
X18390Y4707D1*
Y4659D1*
X18366Y4611D1*
X18318Y4540D1*
X18079Y4300D1*
X18414D1*
X24032Y4683D2*
X24008Y4731D1*
X23960Y4779D1*
X23913Y4803D1*
X23817D1*
X23769Y4779D1*
X23722Y4731D1*
X23697Y4683D1*
X23673Y4612D1*
Y4492D1*
X23697Y4420D1*
X23722Y4372D1*
X23769Y4325D1*
X23817Y4300D1*
X23913D1*
X23960Y4325D1*
X24008Y4372D1*
X24032Y4420D1*
X24187Y4707D2*
X24235Y4731D1*
X24307Y4802D1*
Y4300D1*
M02*
