G04 DipTrace 2.4.0.2*
%INBottom.gbr*%
%MOIN*%
%ADD14C,0.015*%
%ADD15C,0.04*%
%ADD21C,0.08*%
%ADD23C,0.08*%
%FSLAX44Y44*%
G04*
G70*
G90*
G75*
G01*
%LNBottom*%
%LPD*%
X10740Y7440D2*
D14*
X9740D1*
X9340Y7840D1*
X5790Y8340D2*
Y7440D1*
X7590Y5640D1*
X10690D1*
X10740Y5590D1*
X8640Y10240D2*
Y10090D1*
X10740Y7990D1*
X11690D1*
X11640Y8040D1*
X11440D1*
X9640Y10240D2*
Y10040D1*
X11640Y8040D1*
X13490Y10240D2*
X13390D1*
X12440Y9290D1*
Y7540D1*
X11790Y6890D1*
X8890D1*
X7640Y8140D1*
Y10240D1*
X13490Y11240D2*
X10640D1*
X4790Y10190D2*
X4740D1*
X6390Y11840D1*
X8140D1*
X8740Y11240D1*
X8640D1*
X9640D2*
X9690D1*
X8790Y12140D1*
X5740D1*
X4790Y11190D1*
X4190Y10590D1*
Y8690D1*
X4840Y8040D1*
X13490Y9240D2*
X13440D1*
Y8040D1*
D23*
X8440Y4940D3*
X4840Y8040D3*
Y5040D3*
X6840D3*
X11440Y8040D3*
Y5040D3*
X13440Y8040D3*
Y5040D3*
X9940Y4940D3*
X6840Y8040D3*
D15*
X9340Y7840D3*
X10740Y7440D3*
Y5590D3*
X5790Y8340D3*
D21*
X7640Y10240D3*
Y11240D3*
X8640Y10240D3*
Y11240D3*
X9640Y10240D3*
Y11240D3*
X10640Y10240D3*
Y11240D3*
D23*
X4790Y10190D3*
Y11190D3*
X13490Y9240D3*
Y10240D3*
Y11240D3*
M02*
