G04 DipTrace 2.4.0.2*
%INBottomSilk.gbr*%
%MOIN*%
%ADD42C,0.0062*%
%FSLAX44Y44*%
G04*
G70*
G90*
G75*
G01*
%LNBotSilk*%
%LPD*%
X13299Y6535D2*
D42*
X13548D1*
Y6133D1*
X13299D1*
X13548Y6344D2*
X13395D1*
X12908Y6478D2*
X12946Y6516D1*
X13003Y6535D1*
X13080D1*
X13137Y6516D1*
X13176Y6478D1*
Y6440D1*
X13156Y6401D1*
X13137Y6382D1*
X13099Y6363D1*
X12984Y6325D1*
X12946Y6306D1*
X12927Y6286D1*
X12908Y6248D1*
Y6191D1*
X12946Y6153D1*
X13003Y6133D1*
X13080D1*
X13137Y6153D1*
X13176Y6191D1*
X12784Y6325D2*
X12612D1*
X12555Y6344D1*
X12535Y6363D1*
X12516Y6401D1*
Y6459D1*
X12535Y6497D1*
X12555Y6516D1*
X12612Y6535D1*
X12784D1*
Y6133D1*
X12393Y6334D2*
X12172D1*
X11933Y6535D2*
X11991Y6516D1*
X12029Y6458D1*
X12048Y6363D1*
Y6305D1*
X12029Y6210D1*
X11991Y6152D1*
X11933Y6133D1*
X11895D1*
X11838Y6152D1*
X11800Y6210D1*
X11780Y6305D1*
Y6363D1*
X11800Y6458D1*
X11838Y6516D1*
X11895Y6535D1*
X11933D1*
X11800Y6458D2*
X12029Y6210D1*
X11657Y6458D2*
X11618Y6478D1*
X11561Y6535D1*
Y6133D1*
X10660Y6535D2*
Y6133D1*
X10487D1*
X10430Y6153D1*
X10411Y6172D1*
X10392Y6210D1*
Y6267D1*
X10411Y6306D1*
X10430Y6325D1*
X10487Y6344D1*
X10430Y6363D1*
X10411Y6382D1*
X10392Y6420D1*
Y6459D1*
X10411Y6497D1*
X10430Y6516D1*
X10487Y6535D1*
X10660D1*
Y6344D2*
X10487D1*
X10268Y6401D2*
Y6133D1*
Y6286D2*
X10249Y6344D1*
X10211Y6382D1*
X10172Y6401D1*
X10115D1*
X9991Y6286D2*
X9762D1*
Y6325D1*
X9781Y6363D1*
X9800Y6382D1*
X9838Y6401D1*
X9896D1*
X9934Y6382D1*
X9972Y6344D1*
X9991Y6286D1*
Y6248D1*
X9972Y6191D1*
X9934Y6153D1*
X9896Y6133D1*
X9838D1*
X9800Y6153D1*
X9762Y6191D1*
X9409Y6401D2*
Y6133D1*
Y6344D2*
X9447Y6382D1*
X9485Y6401D1*
X9542D1*
X9581Y6382D1*
X9619Y6344D1*
X9638Y6286D1*
Y6248D1*
X9619Y6191D1*
X9581Y6153D1*
X9542Y6133D1*
X9485D1*
X9447Y6153D1*
X9409Y6191D1*
X9285Y6535D2*
Y6133D1*
X9094Y6401D2*
X9285Y6210D1*
X9209Y6286D2*
X9075Y6133D1*
X8856Y6401D2*
X8894Y6382D1*
X8932Y6344D1*
X8951Y6286D1*
Y6248D1*
X8932Y6191D1*
X8894Y6153D1*
X8856Y6133D1*
X8798D1*
X8760Y6153D1*
X8722Y6191D1*
X8702Y6248D1*
Y6286D1*
X8722Y6344D1*
X8760Y6382D1*
X8798Y6401D1*
X8856D1*
X8579D2*
Y6210D1*
X8560Y6153D1*
X8521Y6133D1*
X8464D1*
X8426Y6153D1*
X8368Y6210D1*
Y6401D2*
Y6133D1*
X8187Y6535D2*
Y6210D1*
X8168Y6153D1*
X8130Y6133D1*
X8092D1*
X8245Y6401D2*
X8111D1*
X7191Y6535D2*
X7038Y6133D1*
X6885Y6535D1*
X6761Y6286D2*
X6532D1*
Y6325D1*
X6551Y6363D1*
X6570Y6382D1*
X6608Y6401D1*
X6666D1*
X6704Y6382D1*
X6742Y6344D1*
X6761Y6286D1*
Y6248D1*
X6742Y6191D1*
X6704Y6153D1*
X6666Y6133D1*
X6608D1*
X6570Y6153D1*
X6532Y6191D1*
X6408Y6401D2*
Y6133D1*
Y6286D2*
X6389Y6344D1*
X6351Y6382D1*
X6312Y6401D1*
X6255D1*
X5627Y6535D2*
X5685Y6516D1*
X5723Y6458D1*
X5742Y6363D1*
Y6305D1*
X5723Y6210D1*
X5685Y6152D1*
X5627Y6133D1*
X5589D1*
X5532Y6152D1*
X5494Y6210D1*
X5474Y6305D1*
Y6363D1*
X5494Y6458D1*
X5532Y6516D1*
X5589Y6535D1*
X5627D1*
X5494Y6458D2*
X5723Y6210D1*
X5332Y6172D2*
X5351Y6152D1*
X5332Y6133D1*
X5312Y6152D1*
X5332Y6172D1*
X5189Y6458D2*
X5150Y6478D1*
X5093Y6535D1*
Y6133D1*
X4740Y6401D2*
Y6133D1*
Y6344D2*
X4778Y6382D1*
X4816Y6401D1*
X4874D1*
X4912Y6382D1*
X4950Y6344D1*
X4969Y6286D1*
Y6248D1*
X4950Y6191D1*
X4912Y6153D1*
X4874Y6133D1*
X4816D1*
X4778Y6153D1*
X4740Y6191D1*
M02*
