M48
INCH
T01C0.0191
T02C0.04
T03C0.042
%
T01
X+009340Y+007840
X+010740Y+007440
X+010740Y+005590
X+005790Y+008340
T02
X+007640Y+010240
X+008640Y+010240
X+008640Y+011240
X+007640Y+011240
X+009640Y+011240
X+010640Y+011240
X+010640Y+010240
X+009640Y+010240
X+013490Y+010240
X+013490Y+009240
X+013490Y+011240
X+004790Y+011190
X+004790Y+010190
T03
X+008440Y+004940
X+009940Y+004940
X+011440Y+005040
X+013440Y+005040
X+013440Y+008040
X+011440Y+008040
X+006840Y+008040
X+004840Y+008040
X+004840Y+005040
X+006840Y+005040
T00
M30
