G04 DipTrace 2.4.0.2*
%INTopSilk.gbr*%
%MOIN*%
%ADD10C,0.0098*%
%ADD29C,0.0124*%
%FSLAX44Y44*%
G04*
G70*
G90*
G75*
G01*
%LNTopSilk*%
%LPD*%
X4559Y12703D2*
D10*
X18653D1*
Y4593D1*
X4559D1*
Y12703D1*
X5437Y10521D2*
D29*
X5131Y11325D1*
X4825Y10521D1*
X4940Y10789D2*
X5322D1*
X5684Y10521D2*
X6220Y11324D1*
X7041Y11134D2*
X7003Y11210D1*
X6926Y11287D1*
X6850Y11325D1*
X6697D1*
X6620Y11287D1*
X6544Y11210D1*
X6505Y11134D1*
X6467Y11019D1*
Y10827D1*
X6505Y10713D1*
X6544Y10636D1*
X6620Y10560D1*
X6697Y10521D1*
X6850D1*
X6926Y10560D1*
X7003Y10636D1*
X7041Y10713D1*
X16214Y10447D2*
X16657D1*
X16904Y10849D2*
X17210Y10045D1*
X17516Y10849D1*
X17954Y10581D2*
X17878Y10543D1*
X17801Y10466D1*
X17763Y10351D1*
Y10275D1*
X17801Y10160D1*
X17878Y10084D1*
X17954Y10045D1*
X18069D1*
X18145Y10084D1*
X18222Y10160D1*
X18260Y10275D1*
Y10351D1*
X18222Y10466D1*
X18145Y10543D1*
X18069Y10581D1*
X17954D1*
X5433Y6021D2*
X5126Y6825D1*
X4820Y6021D1*
X4935Y6289D2*
X5318D1*
X5680Y6021D2*
X6216Y6824D1*
X7037Y6634D2*
X6999Y6710D1*
X6922Y6787D1*
X6846Y6825D1*
X6693D1*
X6616Y6787D1*
X6540Y6710D1*
X6501Y6634D1*
X6463Y6519D1*
Y6327D1*
X6501Y6213D1*
X6540Y6136D1*
X6616Y6060D1*
X6693Y6021D1*
X6846D1*
X6922Y6060D1*
X6999Y6136D1*
X7037Y6213D1*
X16310Y7142D2*
Y6453D1*
X15966Y6797D2*
X16655D1*
X16902Y7200D2*
X17208Y6396D1*
X17514Y7200D1*
X17952Y6932D2*
X17876Y6894D1*
X17799Y6817D1*
X17761Y6702D1*
Y6626D1*
X17799Y6511D1*
X17876Y6435D1*
X17952Y6396D1*
X18067D1*
X18144Y6435D1*
X18220Y6511D1*
X18259Y6626D1*
Y6702D1*
X18220Y6817D1*
X18144Y6894D1*
X18067Y6932D1*
X17952D1*
M02*
