G04 DipTrace 2.4.0.2*
%INBoardOutline.gbr*%
%MOIN*%
%ADD17C,0.005*%
%ADD55C,0.0077*%
%FSLAX44Y44*%
G04*
G70*
G90*
G75*
G01*
%LNTopAssy*%
%LPD*%
X5212Y13732D2*
D17*
X19822D1*
Y6302D1*
X5212D1*
Y13732D1*
X13312Y11912D2*
Y10822D1*
X16522D1*
Y9272D1*
X13302D1*
Y8192D1*
X17652D1*
Y10832D1*
X19422D1*
Y11912D1*
X13312D1*
X14128Y11484D2*
D55*
X14104Y11532D1*
X14056Y11580D1*
X14009Y11604D1*
X13913D1*
X13865Y11580D1*
X13818Y11532D1*
X13793Y11484D1*
X13770Y11412D1*
Y11292D1*
X13793Y11221D1*
X13818Y11173D1*
X13865Y11126D1*
X13913Y11101D1*
X14009D1*
X14056Y11126D1*
X14104Y11173D1*
X14128Y11221D1*
X14283Y11604D2*
Y11245D1*
X14306Y11173D1*
X14354Y11126D1*
X14426Y11101D1*
X14474D1*
X14546Y11126D1*
X14594Y11173D1*
X14618Y11245D1*
Y11604D1*
X14939D2*
Y11101D1*
X14772Y11604D2*
X15107D1*
X15891D2*
X15843Y11580D1*
X15795Y11532D1*
X15771Y11484D1*
X15747Y11412D1*
Y11292D1*
X15771Y11221D1*
X15795Y11173D1*
X15843Y11126D1*
X15891Y11101D1*
X15987D1*
X16034Y11126D1*
X16082Y11173D1*
X16106Y11221D1*
X16130Y11292D1*
Y11412D1*
X16106Y11484D1*
X16082Y11532D1*
X16034Y11580D1*
X15987Y11604D1*
X15891D1*
X16284D2*
Y11245D1*
X16308Y11173D1*
X16356Y11126D1*
X16428Y11101D1*
X16475D1*
X16547Y11126D1*
X16595Y11173D1*
X16619Y11245D1*
Y11604D1*
X16941D2*
Y11101D1*
X16773Y11604D2*
X17108D1*
M02*
