G04 DipTrace 2.4.0.2*
%INBottomSilk.gbr*%
%MOIN*%
%ADD21C,0.0079*%
%ADD45C,0.0077*%
%ADD47C,0.0124*%
%ADD49C,0.0044*%
%FSLAX44Y44*%
G04*
G70*
G90*
G75*
G01*
%LNBotSilk*%
%LPD*%
X12152Y11822D2*
D21*
X13192D1*
Y10762D1*
X12152D1*
Y11822D1*
X9012Y12748D2*
D47*
X8208D1*
X9012Y13054D1*
X8208Y13360D1*
X9012D1*
X8208Y12501D2*
X8591Y12195D1*
X9012D1*
X8208Y11889D2*
X8591Y12195D1*
X8610Y11642D2*
Y11200D1*
X8208Y10953D2*
X9012D1*
Y10608D1*
X8973Y10493D1*
X8935Y10455D1*
X8859Y10417D1*
X8744D1*
X8667Y10455D1*
X8629Y10493D1*
X8591Y10608D1*
X8552Y10493D1*
X8514Y10455D1*
X8438Y10417D1*
X8361D1*
X8285Y10455D1*
X8246Y10493D1*
X8208Y10608D1*
Y10953D1*
X8591D2*
Y10608D1*
X8208Y10170D2*
X8782D1*
X8897Y10132D1*
X8973Y10055D1*
X9012Y9940D1*
Y9864D1*
X8973Y9749D1*
X8897Y9672D1*
X8782Y9634D1*
X8208D1*
Y9119D2*
X9012D1*
X8208Y9387D2*
Y8851D1*
Y8604D2*
X9012D1*
Y8145D1*
X8208Y7401D2*
Y7898D1*
X9012D1*
Y7401D1*
X8591Y7898D2*
Y7592D1*
Y7154D2*
Y6810D1*
X8552Y6695D1*
X8514Y6656D1*
X8438Y6618D1*
X8361D1*
X8285Y6656D1*
X8246Y6695D1*
X8208Y6810D1*
Y7154D1*
X9012D1*
X8591Y6886D2*
X9012Y6618D1*
X11385Y13396D2*
D45*
Y13181D1*
X11361Y13109D1*
X11337Y13085D1*
X11290Y13061D1*
X11242D1*
X11194Y13085D1*
X11170Y13109D1*
X11146Y13181D1*
Y13396D1*
X11649D1*
X11385Y13229D2*
X11649Y13061D1*
X11457Y12907D2*
Y12620D1*
X11409D1*
X11361Y12644D1*
X11337Y12668D1*
X11314Y12716D1*
Y12788D1*
X11337Y12835D1*
X11385Y12883D1*
X11457Y12907D1*
X11505D1*
X11577Y12883D1*
X11624Y12835D1*
X11649Y12788D1*
Y12716D1*
X11624Y12668D1*
X11577Y12620D1*
X11146Y12466D2*
X11649D1*
X11314Y12025D2*
X11649D1*
X11385D2*
X11337Y12072D1*
X11314Y12120D1*
Y12191D1*
X11337Y12240D1*
X11385Y12287D1*
X11457Y12311D1*
X11505D1*
X11577Y12287D1*
X11624Y12240D1*
X11649Y12191D1*
Y12120D1*
X11624Y12072D1*
X11577Y12025D1*
X11314Y11846D2*
X11649Y11703D1*
X11744Y11750D1*
X11792Y11798D1*
X11816Y11846D1*
Y11870D1*
X11314Y11559D2*
X11649Y11703D1*
X11146Y10919D2*
X11649D1*
Y10703D1*
X11624Y10631D1*
X11600Y10607D1*
X11553Y10584D1*
X11481D1*
X11433Y10607D1*
X11409Y10631D1*
X11385Y10703D1*
X11361Y10631D1*
X11337Y10607D1*
X11290Y10584D1*
X11242D1*
X11194Y10607D1*
X11170Y10631D1*
X11146Y10703D1*
Y10919D1*
X11385D2*
Y10703D1*
X11314Y10310D2*
X11337Y10357D1*
X11385Y10405D1*
X11457Y10429D1*
X11505D1*
X11577Y10405D1*
X11624Y10357D1*
X11649Y10310D1*
Y10238D1*
X11624Y10190D1*
X11577Y10142D1*
X11505Y10118D1*
X11457D1*
X11385Y10142D1*
X11337Y10190D1*
X11314Y10238D1*
Y10310D1*
Y9677D2*
X11649D1*
X11385D2*
X11337Y9724D1*
X11314Y9772D1*
Y9844D1*
X11337Y9892D1*
X11385Y9939D1*
X11457Y9964D1*
X11505D1*
X11577Y9939D1*
X11624Y9892D1*
X11649Y9844D1*
Y9772D1*
X11624Y9724D1*
X11577Y9677D1*
X11314Y9522D2*
X11649D1*
X11457D2*
X11385Y9498D1*
X11337Y9451D1*
X11314Y9403D1*
Y9331D1*
X11146Y8889D2*
X11649D1*
X11385D2*
X11337Y8937D1*
X11314Y8985D1*
Y9057D1*
X11337Y9104D1*
X11385Y9152D1*
X11457Y9176D1*
X11505D1*
X11577Y9152D1*
X11624Y9104D1*
X11649Y9057D1*
Y8985D1*
X11624Y8937D1*
X11577Y8889D1*
X11314Y8249D2*
X11649Y8105D1*
X11314Y7962D1*
X11242Y7808D2*
X11218Y7760D1*
X11147Y7688D1*
X11649D1*
X11600Y7510D2*
X11625Y7533D1*
X11649Y7510D1*
X11625Y7485D1*
X11600Y7510D1*
X11147Y7187D2*
X11170Y7259D1*
X11242Y7307D1*
X11362Y7331D1*
X11434D1*
X11553Y7307D1*
X11625Y7259D1*
X11649Y7187D1*
Y7140D1*
X11625Y7068D1*
X11553Y7020D1*
X11434Y6996D1*
X11362D1*
X11242Y7020D1*
X11170Y7068D1*
X11147Y7140D1*
Y7187D1*
X11242Y7020D2*
X11553Y7307D1*
X11146Y6842D2*
X11649D1*
X11385D2*
X11337Y6794D1*
X11314Y6746D1*
Y6674D1*
X11337Y6627D1*
X11385Y6579D1*
X11457Y6555D1*
X11505D1*
X11577Y6579D1*
X11624Y6627D1*
X11649Y6674D1*
Y6746D1*
X11624Y6794D1*
X11577Y6842D1*
X12916Y12110D2*
D49*
X12935Y12129D1*
X12964Y12139D1*
X13002D1*
X13031Y12129D1*
X13050Y12110D1*
Y12091D1*
X13041Y12072D1*
X13031Y12062D1*
X13012Y12053D1*
X12955Y12034D1*
X12935Y12024D1*
X12926Y12015D1*
X12916Y11995D1*
Y11967D1*
X12935Y11948D1*
X12964Y11938D1*
X13002D1*
X13031Y11948D1*
X13050Y11967D1*
X12762Y12139D2*
Y11938D1*
X12829Y12139D2*
X12695D1*
X12454Y11938D2*
X12531Y12139D1*
X12607Y11938D1*
X12579Y12005D2*
X12483D1*
X12300Y12139D2*
Y11938D1*
X12367Y12139D2*
X12233D1*
M02*
