G04 DipTrace 2.4.0.2*
%INBottomSilk.gbr*%
%MOIN*%
%ADD51C,0.0077*%
%ADD52C,0.0124*%
%ADD53C,0.0046*%
%FSLAX44Y44*%
G04*
G70*
G90*
G75*
G01*
%LNBotSilk*%
%LPD*%
X9012Y12738D2*
D52*
X8208D1*
X9012Y13044D1*
X8208Y13350D1*
X9012D1*
X8208Y12491D2*
X8591Y12185D1*
X9012D1*
X8208Y11879D2*
X8591Y12185D1*
X8610Y11632D2*
Y11190D1*
X8208Y10943D2*
X9012D1*
Y10598D1*
X8973Y10483D1*
X8935Y10445D1*
X8859Y10407D1*
X8744D1*
X8667Y10445D1*
X8629Y10483D1*
X8591Y10598D1*
X8552Y10483D1*
X8514Y10445D1*
X8438Y10407D1*
X8361D1*
X8285Y10445D1*
X8246Y10483D1*
X8208Y10598D1*
Y10943D1*
X8591D2*
Y10598D1*
X8208Y10160D2*
X8782D1*
X8897Y10122D1*
X8973Y10045D1*
X9012Y9930D1*
Y9854D1*
X8973Y9739D1*
X8897Y9662D1*
X8782Y9624D1*
X8208D1*
Y9109D2*
X9012D1*
X8208Y9377D2*
Y8841D1*
Y8594D2*
X9012D1*
Y8135D1*
X8208Y7391D2*
Y7888D1*
X9012D1*
Y7391D1*
X8591Y7888D2*
Y7582D1*
Y7144D2*
Y6800D1*
X8552Y6685D1*
X8514Y6646D1*
X8438Y6608D1*
X8361D1*
X8285Y6646D1*
X8246Y6685D1*
X8208Y6800D1*
Y7144D1*
X9012D1*
X8591Y6876D2*
X9012Y6608D1*
X11668Y12953D2*
D51*
X11620Y13000D1*
X11596Y13072D1*
Y13168D1*
X11620Y13239D1*
X11668Y13288D1*
X11716D1*
X11764Y13263D1*
X11787Y13239D1*
X11811Y13192D1*
X11859Y13048D1*
X11883Y13000D1*
X11907Y12976D1*
X11955Y12953D1*
X12027D1*
X12074Y13000D1*
X12099Y13072D1*
Y13168D1*
X12074Y13239D1*
X12027Y13288D1*
X11596Y12798D2*
X12099D1*
Y12631D1*
X12074Y12559D1*
X12027Y12511D1*
X11979Y12487D1*
X11907Y12463D1*
X11787D1*
X11716Y12487D1*
X11668Y12511D1*
X11620Y12559D1*
X11596Y12631D1*
Y12798D1*
X11835Y12309D2*
Y12094D1*
X11811Y12022D1*
X11787Y11998D1*
X11740Y11974D1*
X11692D1*
X11644Y11998D1*
X11620Y12022D1*
X11596Y12094D1*
Y12309D1*
X12099D1*
X11835Y12141D2*
X12099Y11974D1*
X11596Y11334D2*
X12099D1*
Y11118D1*
X12074Y11046D1*
X12050Y11022D1*
X12003Y10999D1*
X11931D1*
X11883Y11022D1*
X11859Y11046D1*
X11835Y11118D1*
X11811Y11046D1*
X11787Y11022D1*
X11740Y10999D1*
X11692D1*
X11644Y11022D1*
X11620Y11046D1*
X11596Y11118D1*
Y11334D1*
X11835D2*
Y11118D1*
X11764Y10725D2*
X11787Y10772D1*
X11835Y10820D1*
X11907Y10844D1*
X11955D1*
X12027Y10820D1*
X12074Y10772D1*
X12099Y10725D1*
Y10653D1*
X12074Y10605D1*
X12027Y10557D1*
X11955Y10533D1*
X11907D1*
X11835Y10557D1*
X11787Y10605D1*
X11764Y10653D1*
Y10725D1*
Y10092D2*
X12099D1*
X11835D2*
X11787Y10139D1*
X11764Y10187D1*
Y10259D1*
X11787Y10307D1*
X11835Y10354D1*
X11907Y10379D1*
X11955D1*
X12027Y10354D1*
X12074Y10307D1*
X12099Y10259D1*
Y10187D1*
X12074Y10139D1*
X12027Y10092D1*
X11764Y9937D2*
X12099D1*
X11907D2*
X11835Y9913D1*
X11787Y9866D1*
X11764Y9818D1*
Y9746D1*
X11596Y9304D2*
X12099D1*
X11835D2*
X11787Y9352D1*
X11764Y9400D1*
Y9472D1*
X11787Y9519D1*
X11835Y9567D1*
X11907Y9591D1*
X11955D1*
X12027Y9567D1*
X12074Y9519D1*
X12099Y9472D1*
Y9400D1*
X12074Y9352D1*
X12027Y9304D1*
X11764Y8664D2*
X12099Y8520D1*
X11764Y8377D1*
X11716Y8198D2*
X11692D1*
X11644Y8175D1*
X11620Y8151D1*
X11597Y8103D1*
Y8007D1*
X11620Y7960D1*
X11644Y7936D1*
X11692Y7912D1*
X11740D1*
X11788Y7936D1*
X11859Y7983D1*
X12099Y8223D1*
Y7888D1*
X12050Y7710D2*
X12075Y7733D1*
X12099Y7710D1*
X12075Y7685D1*
X12050Y7710D1*
X11597Y7387D2*
X11620Y7459D1*
X11692Y7507D1*
X11812Y7531D1*
X11884D1*
X12003Y7507D1*
X12075Y7459D1*
X12099Y7387D1*
Y7340D1*
X12075Y7268D1*
X12003Y7220D1*
X11884Y7196D1*
X11812D1*
X11692Y7220D1*
X11620Y7268D1*
X11597Y7340D1*
Y7387D1*
X11692Y7220D2*
X12003Y7507D1*
X11596Y7042D2*
X12099D1*
X11835D2*
X11787Y6994D1*
X11764Y6946D1*
Y6874D1*
X11787Y6827D1*
X11835Y6779D1*
X11907Y6755D1*
X11955D1*
X12027Y6779D1*
X12074Y6827D1*
X12099Y6874D1*
Y6946D1*
X12074Y6994D1*
X12027Y7042D1*
X19493Y10040D2*
D53*
Y9781D1*
X19622Y9910D2*
X19364D1*
X19610Y7881D2*
X19444D1*
X18515Y7751D2*
Y7450D1*
X18615Y7751D2*
X18414D1*
X18144Y8898D2*
X18173Y8927D1*
X18216Y8941D1*
X18273D1*
X18316Y8927D1*
X18345Y8898D1*
Y8870D1*
X18330Y8841D1*
X18316Y8827D1*
X18288Y8812D1*
X18201Y8784D1*
X18173Y8769D1*
X18158Y8755D1*
X18144Y8726D1*
Y8683D1*
X18173Y8655D1*
X18216Y8640D1*
X18273D1*
X18316Y8655D1*
X18345Y8683D1*
M02*
