G04 DipTrace 2.4.0.2*
%INBottomSilk.gbr*%
%MOIN*%
%ADD55C,0.0077*%
%ADD56C,0.0124*%
%ADD57C,0.0046*%
%FSLAX44Y44*%
G04*
G70*
G90*
G75*
G01*
%LNBotSilk*%
%LPD*%
X9012Y12748D2*
D56*
X8208D1*
X9012Y13054D1*
X8208Y13360D1*
X9012D1*
X8208Y12501D2*
X8591Y12195D1*
X9012D1*
X8208Y11889D2*
X8591Y12195D1*
X8610Y11642D2*
Y11200D1*
X8208Y10953D2*
X9012D1*
Y10608D1*
X8973Y10493D1*
X8935Y10455D1*
X8859Y10417D1*
X8744D1*
X8667Y10455D1*
X8629Y10493D1*
X8591Y10608D1*
X8552Y10493D1*
X8514Y10455D1*
X8438Y10417D1*
X8361D1*
X8285Y10455D1*
X8246Y10493D1*
X8208Y10608D1*
Y10953D1*
X8591D2*
Y10608D1*
X8208Y10170D2*
X8782D1*
X8897Y10132D1*
X8973Y10055D1*
X9012Y9940D1*
Y9864D1*
X8973Y9749D1*
X8897Y9672D1*
X8782Y9634D1*
X8208D1*
Y9119D2*
X9012D1*
X8208Y9387D2*
Y8851D1*
Y8604D2*
X9012D1*
Y8145D1*
X8208Y7401D2*
Y7898D1*
X9012D1*
Y7401D1*
X8591Y7898D2*
Y7592D1*
Y7154D2*
Y6810D1*
X8552Y6695D1*
X8514Y6656D1*
X8438Y6618D1*
X8361D1*
X8285Y6656D1*
X8246Y6695D1*
X8208Y6810D1*
Y7154D1*
X9012D1*
X8591Y6886D2*
X9012Y6618D1*
X11668Y12963D2*
D55*
X11620Y13010D1*
X11596Y13082D1*
Y13178D1*
X11620Y13249D1*
X11668Y13298D1*
X11716D1*
X11764Y13273D1*
X11787Y13249D1*
X11811Y13202D1*
X11859Y13058D1*
X11883Y13010D1*
X11907Y12986D1*
X11955Y12963D1*
X12027D1*
X12074Y13010D1*
X12099Y13082D1*
Y13178D1*
X12074Y13249D1*
X12027Y13298D1*
X11596Y12808D2*
X12099D1*
Y12641D1*
X12074Y12569D1*
X12027Y12521D1*
X11979Y12497D1*
X11907Y12473D1*
X11787D1*
X11716Y12497D1*
X11668Y12521D1*
X11620Y12569D1*
X11596Y12641D1*
Y12808D1*
X11835Y12319D2*
Y12104D1*
X11811Y12032D1*
X11787Y12008D1*
X11740Y11984D1*
X11692D1*
X11644Y12008D1*
X11620Y12032D1*
X11596Y12104D1*
Y12319D1*
X12099D1*
X11835Y12151D2*
X12099Y11984D1*
X11596Y11344D2*
X12099D1*
Y11128D1*
X12074Y11056D1*
X12050Y11032D1*
X12003Y11009D1*
X11931D1*
X11883Y11032D1*
X11859Y11056D1*
X11835Y11128D1*
X11811Y11056D1*
X11787Y11032D1*
X11740Y11009D1*
X11692D1*
X11644Y11032D1*
X11620Y11056D1*
X11596Y11128D1*
Y11344D1*
X11835D2*
Y11128D1*
X11764Y10735D2*
X11787Y10782D1*
X11835Y10830D1*
X11907Y10854D1*
X11955D1*
X12027Y10830D1*
X12074Y10782D1*
X12099Y10735D1*
Y10663D1*
X12074Y10615D1*
X12027Y10567D1*
X11955Y10543D1*
X11907D1*
X11835Y10567D1*
X11787Y10615D1*
X11764Y10663D1*
Y10735D1*
Y10102D2*
X12099D1*
X11835D2*
X11787Y10149D1*
X11764Y10197D1*
Y10269D1*
X11787Y10317D1*
X11835Y10364D1*
X11907Y10389D1*
X11955D1*
X12027Y10364D1*
X12074Y10317D1*
X12099Y10269D1*
Y10197D1*
X12074Y10149D1*
X12027Y10102D1*
X11764Y9947D2*
X12099D1*
X11907D2*
X11835Y9923D1*
X11787Y9876D1*
X11764Y9828D1*
Y9756D1*
X11596Y9314D2*
X12099D1*
X11835D2*
X11787Y9362D1*
X11764Y9410D1*
Y9482D1*
X11787Y9529D1*
X11835Y9577D1*
X11907Y9601D1*
X11955D1*
X12027Y9577D1*
X12074Y9529D1*
X12099Y9482D1*
Y9410D1*
X12074Y9362D1*
X12027Y9314D1*
X11764Y8674D2*
X12099Y8530D1*
X11764Y8387D1*
X11716Y8208D2*
X11692D1*
X11644Y8185D1*
X11620Y8161D1*
X11597Y8113D1*
Y8017D1*
X11620Y7970D1*
X11644Y7946D1*
X11692Y7922D1*
X11740D1*
X11788Y7946D1*
X11859Y7993D1*
X12099Y8233D1*
Y7898D1*
X12050Y7720D2*
X12075Y7743D1*
X12099Y7720D1*
X12075Y7695D1*
X12050Y7720D1*
X11597Y7397D2*
X11620Y7469D1*
X11692Y7517D1*
X11812Y7541D1*
X11884D1*
X12003Y7517D1*
X12075Y7469D1*
X12099Y7397D1*
Y7350D1*
X12075Y7278D1*
X12003Y7230D1*
X11884Y7206D1*
X11812D1*
X11692Y7230D1*
X11620Y7278D1*
X11597Y7350D1*
Y7397D1*
X11692Y7230D2*
X12003Y7517D1*
X11596Y7052D2*
X12099D1*
X11835D2*
X11787Y7004D1*
X11764Y6956D1*
Y6884D1*
X11787Y6837D1*
X11835Y6789D1*
X11907Y6765D1*
X11955D1*
X12027Y6789D1*
X12074Y6837D1*
X12099Y6884D1*
Y6956D1*
X12074Y7004D1*
X12027Y7052D1*
X19493Y10050D2*
D57*
Y9791D1*
X19622Y9920D2*
X19364D1*
X19610Y7891D2*
X19444D1*
X18515Y7761D2*
Y7460D1*
X18615Y7761D2*
X18414D1*
X18144Y8908D2*
X18173Y8937D1*
X18216Y8951D1*
X18273D1*
X18316Y8937D1*
X18345Y8908D1*
Y8880D1*
X18330Y8851D1*
X18316Y8837D1*
X18288Y8822D1*
X18201Y8794D1*
X18173Y8779D1*
X18158Y8765D1*
X18144Y8736D1*
Y8693D1*
X18173Y8665D1*
X18216Y8650D1*
X18273D1*
X18316Y8665D1*
X18345Y8693D1*
M02*
