M48
INCH
T01C0.0191
T02C0.0236
T03C0.04
T04C0.0551
%
T01
X+019362Y+006722
X+018432Y+008452
X+017252Y+007262
X+016672Y+006692
X+015062Y+006692
X+013512Y+006692
T02
X+014955Y+012412
X+014955Y+007688
T03
X+019202Y+009392
X+019120Y+010203
X+018120Y+010203
X+018222Y+009392
X+019202Y+008392
X+018532Y+007002
X+017162Y+012412
X+018120Y+013203
X+019120Y+013203
T04
X+010112Y+012412
X+006952Y+012042
X+006952Y+010042
X+006952Y+008042
X+010112Y+007688
X+015742Y+010050
T00
M30
