M48
INCH
T01C0.0191
T02C0.0236
T03C0.04
T04C0.0551
%
T01
X+019362Y+006712
X+018452Y+008352
X+017252Y+007252
X+016672Y+006682
X+015062Y+006682
X+013512Y+006682
T02
X+014955Y+012402
X+014955Y+007678
T03
X+019202Y+009382
X+019150Y+010193
X+018150Y+010193
X+018222Y+009382
X+019202Y+008382
X+018532Y+006992
X+017312Y+012532
X+018150Y+013193
X+019150Y+013193
X+015642Y+012532
T04
X+010112Y+012402
X+006952Y+012042
X+006952Y+010042
X+006952Y+008042
X+010112Y+007678
X+015742Y+010040
T00
M30
