G04 DipTrace 2.4.0.2*
%INTop.gbr*%
%MOIN*%
%ADD13C,0.12*%
%ADD14C,0.015*%
%ADD15C,0.02*%
%ADD19C,0.08*%
%ADD20R,0.0394X0.0433*%
%ADD21R,0.0591X0.0512*%
%ADD22R,0.0433X0.0394*%
%ADD23C,0.0984*%
%ADD24C,0.06*%
%ADD26C,0.065*%
%ADD28R,0.0413X0.0256*%
%ADD29C,0.04*%
%FSLAX44Y44*%
G04*
G70*
G90*
G75*
G01*
%LNTop*%
%LPD*%
X6952Y12042D2*
D13*
X7312Y12402D1*
X10112D1*
X6952Y10042D2*
X10670D1*
Y10040D1*
X15742D1*
X16802Y13332D2*
D14*
X13962D1*
X10670Y10040D1*
X6952Y8042D2*
D13*
X7316Y7678D1*
X10112D1*
X14955Y12402D2*
D15*
X15642D1*
Y12532D1*
X19202Y9382D2*
X19150D1*
Y10193D1*
X17471Y13332D2*
D14*
X18010D1*
D15*
X18150Y13193D1*
X16776Y7256D2*
X15379D1*
X14954Y7682D1*
X18222Y9382D2*
X18150D1*
Y10193D1*
X19362Y7392D2*
Y8222D1*
X19202Y8382D1*
X13692Y6682D2*
X14157D1*
X17682Y7332D2*
Y7630D1*
X19362Y6712D2*
Y6722D1*
X18392Y8312D2*
Y8410D1*
X18322Y8480D1*
Y7732D2*
X18512D1*
Y6992D1*
X18532D1*
X15282Y6682D2*
X15737D1*
X14826D2*
X15282D1*
X16406D2*
X16672D1*
X17482D1*
X17682Y6882D1*
X16672Y6682D2*
D3*
X17312Y12532D2*
D14*
Y12462D1*
X18492D1*
X19222Y13193D1*
X19150D1*
D29*
X15282Y6682D3*
X19362Y6712D3*
X18392Y8312D3*
X13692Y6682D3*
X17682Y7332D3*
D19*
X19202Y9382D3*
Y8382D3*
X15642Y12532D3*
X18532Y6992D3*
X18222Y9382D3*
D20*
X19362Y6722D3*
Y7392D3*
D21*
X18322Y7732D3*
Y8480D3*
D22*
X15737Y6682D3*
X16406D3*
X16802Y13332D3*
X17471D3*
X14157Y6682D3*
X14826D3*
D23*
X10112Y12402D3*
Y7678D3*
D24*
X14954Y12402D3*
Y7682D3*
D23*
X15742Y10040D3*
X6952Y12042D3*
Y10042D3*
Y8042D3*
D26*
X18150Y10193D3*
X19150D3*
Y13193D3*
X18150D3*
D28*
X17682Y6882D3*
Y7630D3*
X16776Y7256D3*
D19*
X17312Y12532D3*
M02*
