G04 DipTrace 2.4.0.2*
%INTop.gbr*%
%MOIN*%
%ADD13C,0.12*%
%ADD14C,0.02*%
%ADD15C,0.015*%
%ADD16C,0.03*%
%ADD22C,0.0984*%
%ADD23C,0.063*%
%ADD25R,0.0413X0.0256*%
%ADD26C,0.08*%
%ADD27R,0.0394X0.0433*%
%ADD28R,0.0591X0.0512*%
%FSLAX44Y44*%
G04*
G70*
G90*
G75*
G01*
%LNTop*%
%LPD*%
X6952Y12042D2*
D13*
X7322Y12412D1*
X10152D1*
X12656Y11277D2*
D14*
X12882D1*
Y10050D1*
D13*
X15742D1*
X6952Y10042D2*
X12882D1*
X6952Y8042D2*
X7306Y7688D1*
X10152D1*
X17782Y6902D2*
D14*
X18232D1*
X18532Y7202D1*
X18802D1*
X18432D1*
Y9552D1*
X18612D1*
X19032Y8132D2*
D15*
Y7432D1*
X18802Y7202D1*
X17342Y12632D2*
D16*
X15175D1*
X14955Y12412D1*
X16876Y7276D2*
X15367D1*
X14955Y7688D1*
X17782Y7650D2*
X18012Y7880D1*
Y12522D1*
X18122Y12632D1*
X18342D1*
X18512Y11712D2*
D15*
Y12462D1*
X18342Y12632D1*
X19032Y8801D2*
X19122D1*
Y11852D1*
X18342Y12632D1*
X18512Y11042D2*
Y10400D1*
X18612Y10300D1*
D26*
X18802Y7202D3*
X12656Y11277D3*
D22*
X10152Y12412D3*
Y7688D3*
D23*
X14955Y12412D3*
Y7688D3*
D22*
X15742Y10050D3*
X6952Y12042D3*
Y10042D3*
Y8042D3*
D25*
X17782Y6902D3*
Y7650D3*
X16876Y7276D3*
D26*
X17342Y12632D3*
X18342D3*
D27*
X18512Y11042D3*
Y11712D3*
D28*
X18612Y9552D3*
Y10300D3*
D27*
X19032Y8132D3*
Y8801D3*
M02*
