G04 DipTrace 2.4.0.2*
%INBottomSilk.gbr*%
%MOIN*%
%ADD10C,0.0098*%
%ADD12C,0.003*%
%FSLAX44Y44*%
G04*
G70*
G90*
G75*
G01*
%LNBotSilk*%
%LPD*%
X13235Y14303D2*
D10*
Y14539D1*
X13865Y14303D2*
Y14539D1*
X8820Y15290D2*
D12*
X9000D1*
X9420D2*
X9600D1*
X8759Y15260D2*
X9046D1*
X9372D2*
X9661D1*
X8713Y15230D2*
X9079D1*
X9331D2*
X9707D1*
X8680Y15200D2*
X9104D1*
X9295D2*
X9740D1*
X8657Y15170D2*
X8753D1*
X9030D2*
X9113D1*
X9267D2*
X9382D1*
X9667D2*
X9763D1*
X8633Y15140D2*
X8741D1*
X9030D2*
X9120D1*
X9246D2*
X9360D1*
X9682D2*
X9787D1*
X8599Y15110D2*
X8712D1*
X9223D2*
X9333D1*
X9704D2*
X9821D1*
X8430Y15080D2*
X8460D1*
X8520D2*
X8683D1*
X9198D2*
X9308D1*
X9726D2*
X9900D1*
X9960D2*
X9990D1*
X8358Y15050D2*
X8659D1*
X9176D2*
X9289D1*
X9743D2*
X10049D1*
X8294Y15020D2*
X8649D1*
X9162D2*
X9279D1*
X9757D2*
X10098D1*
X8239Y14990D2*
X8644D1*
X9155D2*
X9274D1*
X9770D2*
X10200D1*
X8193Y14960D2*
X8350D1*
X8550D2*
X8640D1*
X9152D2*
X9271D1*
X9780D2*
X9870D1*
X10070D2*
X10222D1*
X8172Y14930D2*
X8307D1*
X9151D2*
X9271D1*
X10113D2*
X10243D1*
X8155Y14900D2*
X8272D1*
X9150D2*
X9270D1*
X10148D2*
X10262D1*
X8143Y14870D2*
X8243D1*
X9150D2*
X9270D1*
X10177D2*
X10275D1*
X8136Y14840D2*
X8230D1*
X9150D2*
X9270D1*
X10190D2*
X10283D1*
X8131Y14810D2*
X8219D1*
X9150D2*
X9270D1*
X10201D2*
X10288D1*
X8126Y14780D2*
X8206D1*
X9150D2*
X9270D1*
X9660D2*
X9720D1*
X10214D2*
X10294D1*
X8115Y14750D2*
X8190D1*
X9150D2*
X9270D1*
X9606D2*
X9750D1*
X10230D2*
X10305D1*
X8098Y14720D2*
X8201D1*
X8790D2*
X8850D1*
X9150D2*
X9270D1*
X9562D2*
X9719D1*
X10219D2*
X10322D1*
X8064Y14690D2*
X8200D1*
X8790D2*
X8850D1*
X9150D2*
X9270D1*
X9525D2*
X9676D1*
X10220D2*
X10356D1*
X8028Y14660D2*
X8164D1*
X8790D2*
X8850D1*
X9150D2*
X9270D1*
X9494D2*
X9627D1*
X10256D2*
X10392D1*
X7996Y14630D2*
X8128D1*
X8790D2*
X8850D1*
X9150D2*
X9270D1*
X9469D2*
X9586D1*
X10292D2*
X10424D1*
X7967Y14600D2*
X8095D1*
X8789D2*
X8851D1*
X9150D2*
X9270D1*
X9459D2*
X9556D1*
X10327D2*
X10453D1*
X7945Y14570D2*
X8063D1*
X8785D2*
X8855D1*
X9150D2*
X9270D1*
X9454D2*
X9543D1*
X10362D2*
X10475D1*
X7930Y14540D2*
X8037D1*
X8778D2*
X8865D1*
X9150D2*
X9270D1*
X9452D2*
X9531D1*
X10394D2*
X10488D1*
X7920Y14510D2*
X8018D1*
X8757D2*
X8881D1*
X9150D2*
X9270D1*
X9451D2*
X9520D1*
X9900D2*
X9960D1*
X10421D2*
X10496D1*
X7910Y14480D2*
X8003D1*
X8687D2*
X8904D1*
X9150D2*
X9270D1*
X9450D2*
X9510D1*
X9900D2*
X9965D1*
X10431D2*
X10504D1*
X7901Y14450D2*
X7992D1*
X8584D2*
X8930D1*
X9150D2*
X9270D1*
X9900D2*
X9972D1*
X10436D2*
X10515D1*
X7896Y14420D2*
X7986D1*
X8480D2*
X8949D1*
X9150D2*
X9270D1*
X9900D2*
X9983D1*
X10438D2*
X10530D1*
X7897Y14390D2*
X7984D1*
X8396D2*
X8764D1*
X8876D2*
X8961D1*
X9150D2*
X9270D1*
X9902D2*
X9995D1*
X10438D2*
X10516D1*
X7903Y14360D2*
X7986D1*
X8362D2*
X8772D1*
X8868D2*
X8966D1*
X9150D2*
X9270D1*
X9907D2*
X10031D1*
X10435D2*
X10508D1*
X7910Y14330D2*
X7995D1*
X8350D2*
X8807D1*
X8833D2*
X8967D1*
X9150D2*
X9270D1*
X9925D2*
X10079D1*
X10425D2*
X10503D1*
X7914Y14300D2*
X8010D1*
X8344D2*
X8430D1*
X8674D2*
X8965D1*
X9150D2*
X9270D1*
X9948D2*
X10126D1*
X10410D2*
X10503D1*
X7914Y14270D2*
X8030D1*
X8342D2*
X8430D1*
X8690D2*
X8950D1*
X9150D2*
X9270D1*
X9980D2*
X10165D1*
X10390D2*
X10505D1*
X7898Y14240D2*
X8051D1*
X8341D2*
X8430D1*
X8723D2*
X8917D1*
X9150D2*
X9270D1*
X10026D2*
X10200D1*
X10369D2*
X10522D1*
X7876Y14210D2*
X8070D1*
X8340D2*
X8430D1*
X8760D2*
X8880D1*
X9150D2*
X9270D1*
X10080D2*
X10170D1*
X10350D2*
X10544D1*
X7854Y14180D2*
X8031D1*
X8340D2*
X8430D1*
X9150D2*
X9270D1*
X10389D2*
X10566D1*
X7837Y14150D2*
X7991D1*
X8340D2*
X8430D1*
X9150D2*
X9270D1*
X10429D2*
X10583D1*
X7823Y14120D2*
X7952D1*
X8340D2*
X8430D1*
X9150D2*
X9270D1*
X10468D2*
X10597D1*
X7812Y14090D2*
X7921D1*
X8340D2*
X8430D1*
X9150D2*
X9270D1*
X10502D2*
X10608D1*
X7806Y14060D2*
X7900D1*
X8340D2*
X8430D1*
X9150D2*
X9270D1*
X9450D2*
X9540D1*
X10517D2*
X10614D1*
X7802Y14030D2*
X7884D1*
X8340D2*
X8430D1*
X9150D2*
X9270D1*
X9450D2*
X9540D1*
X10529D2*
X10618D1*
X7801Y14000D2*
X7873D1*
X8339D2*
X8431D1*
X9150D2*
X9270D1*
X9450D2*
X9542D1*
X10539D2*
X10619D1*
X7800Y13970D2*
X7867D1*
X8335D2*
X8435D1*
X9150D2*
X9270D1*
X9451D2*
X9548D1*
X10547D2*
X10620D1*
X7800Y13940D2*
X7867D1*
X8319D2*
X8452D1*
X9150D2*
X9270D1*
X9455D2*
X9573D1*
X10543D2*
X10620D1*
X7800Y13910D2*
X7873D1*
X8296D2*
X8514D1*
X8700D2*
X8940D1*
X9150D2*
X9270D1*
X9472D2*
X9612D1*
X10230D2*
X10290D1*
X10538D2*
X10620D1*
X7800Y13880D2*
X7883D1*
X8274D2*
X8611D1*
X8700D2*
X8954D1*
X9150D2*
X9270D1*
X9496D2*
X9659D1*
X10214D2*
X10290D1*
X10534D2*
X10620D1*
X7799Y13850D2*
X7897D1*
X8256D2*
X8311D1*
X8436D2*
X8760D1*
X8880D2*
X8962D1*
X9150D2*
X9270D1*
X9523D2*
X9705D1*
X10196D2*
X10289D1*
X10532D2*
X10621D1*
X7795Y13820D2*
X7920D1*
X8239D2*
X8315D1*
X8446D2*
X8760D1*
X8880D2*
X8967D1*
X9150D2*
X9270D1*
X9555D2*
X9728D1*
X10174D2*
X10285D1*
X10531D2*
X10625D1*
X7785Y13790D2*
X7950D1*
X8220D2*
X8325D1*
X8460D2*
X8764D1*
X8876D2*
X8969D1*
X9150D2*
X9270D1*
X9592D2*
X9729D1*
X10149D2*
X10275D1*
X10530D2*
X10635D1*
X7770Y13760D2*
X7922D1*
X8236D2*
X8342D1*
X8435D2*
X8772D1*
X8868D2*
X8968D1*
X9150D2*
X9270D1*
X9628D2*
X9725D1*
X10130D2*
X10259D1*
X10530D2*
X10650D1*
X7751Y13730D2*
X7904D1*
X8254D2*
X8368D1*
X8405D2*
X8807D1*
X8833D2*
X8965D1*
X9150D2*
X9270D1*
X9660D2*
X9720D1*
X10118D2*
X10234D1*
X10530D2*
X10671D1*
X7732Y13700D2*
X7800D1*
X8279D2*
X8520D1*
X8693D2*
X8944D1*
X9150D2*
X9270D1*
X9990D2*
X10203D1*
X10620D2*
X10693D1*
X7719Y13670D2*
X7790D1*
X8310D2*
X8460D1*
X8735D2*
X8914D1*
X9150D2*
X9270D1*
X9990D2*
X10170D1*
X10630D2*
X10712D1*
X7710Y13640D2*
X7781D1*
X8768D2*
X8885D1*
X9150D2*
X9270D1*
X10639D2*
X10725D1*
X7700Y13610D2*
X7775D1*
X8779D2*
X8863D1*
X9150D2*
X9270D1*
X10645D2*
X10733D1*
X7691Y13580D2*
X7772D1*
X8786D2*
X8856D1*
X9150D2*
X9270D1*
X10648D2*
X10737D1*
X7685Y13550D2*
X7771D1*
X8788D2*
X8853D1*
X9150D2*
X9270D1*
X10649D2*
X10739D1*
X7682Y13520D2*
X7770D1*
X8789D2*
X8851D1*
X9150D2*
X9270D1*
X10650D2*
X10740D1*
X7681Y13490D2*
X7770D1*
X8790D2*
X8850D1*
X9150D2*
X9270D1*
X10650D2*
X10740D1*
X7681Y13460D2*
X7771D1*
X8790D2*
X8850D1*
X9150D2*
X9270D1*
X10649D2*
X10739D1*
X7685Y13430D2*
X7775D1*
X8790D2*
X8850D1*
X9150D2*
X9270D1*
X10645D2*
X10735D1*
X7695Y13400D2*
X7785D1*
X8790D2*
X8850D1*
X9150D2*
X9270D1*
X10635D2*
X10725D1*
X7710Y13370D2*
X7800D1*
X8790D2*
X8850D1*
X9150D2*
X9270D1*
X9630D2*
X9750D1*
X10620D2*
X10710D1*
X7730Y13340D2*
X7819D1*
X8790D2*
X8850D1*
X9150D2*
X9270D1*
X9571D2*
X9735D1*
X10601D2*
X10690D1*
X7749Y13310D2*
X7838D1*
X8790D2*
X8850D1*
X9150D2*
X9270D1*
X9526D2*
X9714D1*
X10582D2*
X10671D1*
X7764Y13280D2*
X7850D1*
X8790D2*
X8850D1*
X9150D2*
X9270D1*
X9497D2*
X9668D1*
X10570D2*
X10656D1*
X7776Y13250D2*
X7950D1*
X8310D2*
X8460D1*
X8790D2*
X8850D1*
X9150D2*
X9270D1*
X9477D2*
X9619D1*
X9990D2*
X10170D1*
X10470D2*
X10644D1*
X7785Y13220D2*
X7943D1*
X8281D2*
X8488D1*
X8790D2*
X8850D1*
X9150D2*
X9270D1*
X9464D2*
X9575D1*
X10005D2*
X10194D1*
X10477D2*
X10635D1*
X7777Y13190D2*
X7919D1*
X8259D2*
X8508D1*
X8790D2*
X8850D1*
X9150D2*
X9270D1*
X9456D2*
X9556D1*
X10044D2*
X10222D1*
X10501D2*
X10643D1*
X7754Y13160D2*
X7888D1*
X8240D2*
X8346D1*
X8430D2*
X8514D1*
X8790D2*
X8850D1*
X9150D2*
X9270D1*
X9453D2*
X9542D1*
X10091D2*
X10249D1*
X10532D2*
X10666D1*
X7733Y13130D2*
X7854D1*
X8220D2*
X8327D1*
X8460D2*
X8518D1*
X8790D2*
X8850D1*
X9150D2*
X9270D1*
X9451D2*
X9530D1*
X10135D2*
X10269D1*
X10566D2*
X10687D1*
X7717Y13100D2*
X7824D1*
X8236D2*
X8320D1*
X8429D2*
X8521D1*
X8790D2*
X8850D1*
X9150D2*
X9270D1*
X9450D2*
X9520D1*
X10168D2*
X10280D1*
X10596D2*
X10703D1*
X7703Y13070D2*
X7801D1*
X8254D2*
X8357D1*
X8389D2*
X8524D1*
X8790D2*
X8850D1*
X9150D2*
X9270D1*
X9450D2*
X9510D1*
X10190D2*
X10286D1*
X10619D2*
X10717D1*
X7692Y13040D2*
X7786D1*
X8277D2*
X8542D1*
X8790D2*
X8850D1*
X9150D2*
X9270D1*
X10206D2*
X10288D1*
X10634D2*
X10728D1*
X7686Y13010D2*
X7777D1*
X8307D2*
X8566D1*
X8788D2*
X8850D1*
X9150D2*
X9270D1*
X10218D2*
X10289D1*
X10643D2*
X10734D1*
X7682Y12980D2*
X7773D1*
X8347D2*
X8595D1*
X8784D2*
X8850D1*
X9150D2*
X9270D1*
X10225D2*
X10290D1*
X10647D2*
X10738D1*
X7681Y12950D2*
X7771D1*
X8402D2*
X8634D1*
X8762D2*
X8850D1*
X9150D2*
X9270D1*
X10230D2*
X10290D1*
X10649D2*
X10739D1*
X7682Y12920D2*
X7771D1*
X8461D2*
X8691D1*
X8706D2*
X8940D1*
X9150D2*
X9270D1*
X10649D2*
X10738D1*
X7685Y12890D2*
X7772D1*
X8511D2*
X8945D1*
X9150D2*
X9270D1*
X10648D2*
X10735D1*
X7695Y12860D2*
X7775D1*
X8552D2*
X8952D1*
X9150D2*
X9270D1*
X10645D2*
X10725D1*
X7710Y12830D2*
X7791D1*
X8591D2*
X8960D1*
X9150D2*
X9270D1*
X10629D2*
X10710D1*
X7730Y12800D2*
X7814D1*
X8624D2*
X8764D1*
X8876D2*
X8965D1*
X9150D2*
X9270D1*
X9660D2*
X9840D1*
X10606D2*
X10690D1*
X7750Y12770D2*
X7835D1*
X8648D2*
X8772D1*
X8868D2*
X8966D1*
X9150D2*
X9270D1*
X9675D2*
X9864D1*
X10585D2*
X10670D1*
X7773Y12740D2*
X7849D1*
X8667D2*
X8807D1*
X8833D2*
X8965D1*
X9150D2*
X9270D1*
X9714D2*
X9892D1*
X10571D2*
X10647D1*
X7805Y12710D2*
X8100D1*
X8688D2*
X8948D1*
X9150D2*
X9270D1*
X9761D2*
X9919D1*
X10320D2*
X10615D1*
X7847Y12680D2*
X8090D1*
X8714D2*
X8925D1*
X9150D2*
X9270D1*
X9806D2*
X9939D1*
X10330D2*
X10573D1*
X7889Y12650D2*
X8078D1*
X8739D2*
X8900D1*
X9150D2*
X9270D1*
X9841D2*
X9950D1*
X10342D2*
X10531D1*
X7925Y12620D2*
X8065D1*
X8760D2*
X8880D1*
X9150D2*
X9270D1*
X9867D2*
X9956D1*
X10355D2*
X10495D1*
X7956Y12590D2*
X8048D1*
X8775D2*
X8865D1*
X9150D2*
X9270D1*
X9884D2*
X9958D1*
X10372D2*
X10464D1*
X7968Y12560D2*
X8031D1*
X8783D2*
X8857D1*
X9150D2*
X9270D1*
X9893D2*
X9959D1*
X10389D2*
X10452D1*
X7975Y12530D2*
X8019D1*
X8787D2*
X8853D1*
X9150D2*
X9270D1*
X9900D2*
X9960D1*
X10401D2*
X10445D1*
X7978Y12500D2*
X8020D1*
X8789D2*
X8851D1*
X9150D2*
X9270D1*
X10400D2*
X10442D1*
X7979Y12470D2*
X8035D1*
X8790D2*
X8850D1*
X9150D2*
X9270D1*
X10385D2*
X10441D1*
X7981Y12440D2*
X8051D1*
X8790D2*
X8850D1*
X9150D2*
X9270D1*
X10369D2*
X10439D1*
X7985Y12410D2*
X8066D1*
X8790D2*
X8850D1*
X9150D2*
X9270D1*
X10354D2*
X10435D1*
X7992Y12380D2*
X8082D1*
X8460D2*
X8520D1*
X9150D2*
X9270D1*
X9900D2*
X9960D1*
X10338D2*
X10428D1*
X8001Y12350D2*
X8104D1*
X8428D2*
X8525D1*
X9150D2*
X9270D1*
X9895D2*
X9992D1*
X10316D2*
X10419D1*
X8014Y12320D2*
X8177D1*
X8372D2*
X8532D1*
X9149D2*
X9268D1*
X9888D2*
X10048D1*
X10243D2*
X10406D1*
X8031Y12290D2*
X8291D1*
X8277D2*
X8540D1*
X9145D2*
X9263D1*
X9880D2*
X10143D1*
X10129D2*
X10389D1*
X8069Y12260D2*
X8548D1*
X9137D2*
X9246D1*
X9872D2*
X10351D1*
X8118Y12230D2*
X8559D1*
X9125D2*
X9229D1*
X9861D2*
X10302D1*
X8179Y12200D2*
X8580D1*
X9113D2*
X9212D1*
X9840D2*
X10241D1*
X8250Y12170D2*
X8310D1*
X8478D2*
X8608D1*
X9102D2*
X9192D1*
X9812D2*
X9921D1*
X10110D2*
X10170D1*
X8515Y12140D2*
X8645D1*
X9095D2*
X9166D1*
X9775D2*
X9904D1*
X8541Y12110D2*
X8710D1*
X9000D2*
X9140D1*
X9300D2*
X9420D1*
X9710D2*
X9883D1*
X8566Y12080D2*
X8824D1*
X9000D2*
X9114D1*
X9315D2*
X9420D1*
X9596D2*
X9857D1*
X8597Y12050D2*
X9087D1*
X9336D2*
X9824D1*
X8647Y12020D2*
X9055D1*
X9368D2*
X9774D1*
X8737Y11990D2*
X8956D1*
X9418D2*
X9684D1*
X8882Y11960D2*
X8801D1*
X9480D2*
X9538D1*
X8820Y15290D2*
X8759Y15260D1*
X8713Y15230D1*
X8680Y15200D1*
X8657Y15170D1*
X8633Y15140D1*
X8599Y15110D1*
X8520Y15080D1*
X8430Y15050D1*
X9000Y15290D2*
X9046Y15260D1*
X9079Y15230D1*
X9104Y15200D1*
X9113Y15170D1*
X9120Y15140D1*
X9420Y15290D2*
X9372Y15260D1*
X9331Y15230D1*
X9295Y15200D1*
X9267Y15170D1*
X9246Y15140D1*
X9223Y15110D1*
X9198Y15080D1*
X9176Y15050D1*
X9162Y15020D1*
X9155Y14990D1*
X9152Y14960D1*
X9151Y14930D1*
X9150Y14900D1*
Y14870D1*
Y14840D1*
Y14810D1*
Y14780D1*
Y14750D1*
Y14720D1*
Y14690D1*
Y14660D1*
Y14630D1*
Y14600D1*
Y14570D1*
Y14540D1*
Y14510D1*
Y14480D1*
Y14450D1*
Y14420D1*
Y14390D1*
Y14360D1*
Y14330D1*
Y14300D1*
Y14270D1*
Y14240D1*
Y14210D1*
Y14180D1*
Y14150D1*
Y14120D1*
Y14090D1*
Y14060D1*
Y14030D1*
Y14000D1*
Y13970D1*
Y13940D1*
Y13910D1*
Y13880D1*
Y13850D1*
Y13820D1*
Y13790D1*
Y13760D1*
Y13730D1*
Y13700D1*
Y13670D1*
Y13640D1*
Y13610D1*
Y13580D1*
Y13550D1*
Y13520D1*
Y13490D1*
Y13460D1*
Y13430D1*
Y13400D1*
Y13370D1*
Y13340D1*
Y13310D1*
Y13280D1*
Y13250D1*
Y13220D1*
Y13190D1*
Y13160D1*
Y13130D1*
Y13100D1*
Y13070D1*
Y13040D1*
Y13010D1*
Y12980D1*
Y12950D1*
Y12920D1*
Y12890D1*
Y12860D1*
Y12830D1*
Y12800D1*
Y12770D1*
Y12740D1*
Y12710D1*
Y12680D1*
Y12650D1*
Y12620D1*
Y12590D1*
Y12560D1*
Y12530D1*
Y12500D1*
Y12470D1*
Y12440D1*
Y12410D1*
Y12380D1*
Y12350D1*
X9149Y12320D1*
X9145Y12290D1*
X9137Y12260D1*
X9125Y12230D1*
X9113Y12200D1*
X9102Y12170D1*
X9095Y12140D1*
X9090Y12110D1*
X9000D1*
Y12080D1*
X8700Y12050D1*
X9600Y15290D2*
X9661Y15260D1*
X9707Y15230D1*
X9740Y15200D1*
X9763Y15170D1*
X9787Y15140D1*
X9821Y15110D1*
X9900Y15080D1*
X9990Y15050D1*
X8760Y15200D2*
X8753Y15170D1*
X8741Y15140D1*
X8712Y15110D1*
X8683Y15080D1*
X8659Y15050D1*
X8649Y15020D1*
X8644Y14990D1*
X8640Y14960D1*
X9030Y15200D2*
Y15170D1*
Y15140D1*
X9390Y15200D2*
X9382Y15170D1*
X9360Y15140D1*
X9333Y15110D1*
X9308Y15080D1*
X9289Y15050D1*
X9279Y15020D1*
X9274Y14990D1*
X9271Y14960D1*
Y14930D1*
X9270Y14900D1*
Y14870D1*
Y14840D1*
Y14810D1*
Y14780D1*
Y14750D1*
Y14720D1*
Y14690D1*
Y14660D1*
Y14630D1*
Y14600D1*
Y14570D1*
Y14540D1*
Y14510D1*
Y14480D1*
Y14450D1*
Y14420D1*
Y14390D1*
Y14360D1*
Y14330D1*
Y14300D1*
Y14270D1*
Y14240D1*
Y14210D1*
Y14180D1*
Y14150D1*
Y14120D1*
Y14090D1*
Y14060D1*
Y14030D1*
Y14000D1*
Y13970D1*
Y13940D1*
Y13910D1*
Y13880D1*
Y13850D1*
Y13820D1*
Y13790D1*
Y13760D1*
Y13730D1*
Y13700D1*
Y13670D1*
Y13640D1*
Y13610D1*
Y13580D1*
Y13550D1*
Y13520D1*
Y13490D1*
Y13460D1*
Y13430D1*
Y13400D1*
Y13370D1*
Y13340D1*
Y13310D1*
Y13280D1*
Y13250D1*
Y13220D1*
Y13190D1*
Y13160D1*
Y13130D1*
Y13100D1*
Y13070D1*
Y13040D1*
Y13010D1*
Y12980D1*
Y12950D1*
Y12920D1*
Y12890D1*
Y12860D1*
Y12830D1*
Y12800D1*
Y12770D1*
Y12740D1*
Y12710D1*
Y12680D1*
Y12650D1*
Y12620D1*
Y12590D1*
Y12560D1*
Y12530D1*
Y12500D1*
Y12470D1*
Y12440D1*
Y12410D1*
Y12380D1*
Y12350D1*
X9268Y12320D1*
X9263Y12290D1*
X9246Y12260D1*
X9229Y12230D1*
X9212Y12200D1*
X9192Y12170D1*
X9166Y12140D1*
X9140Y12110D1*
X9114Y12080D1*
X9087Y12050D1*
X9055Y12020D1*
X8956Y11990D1*
X8801Y11960D1*
X8610Y11930D1*
X9660Y15200D2*
X9667Y15170D1*
X9682Y15140D1*
X9704Y15110D1*
X9726Y15080D1*
X9743Y15050D1*
X9757Y15020D1*
X9770Y14990D1*
X9780Y14960D1*
X8430Y15080D2*
X8358Y15050D1*
X8294Y15020D1*
X8239Y14990D1*
X8193Y14960D1*
X8172Y14930D1*
X8155Y14900D1*
X8143Y14870D1*
X8136Y14840D1*
X8131Y14810D1*
X8126Y14780D1*
X8115Y14750D1*
X8098Y14720D1*
X8064Y14690D1*
X8028Y14660D1*
X7996Y14630D1*
X7967Y14600D1*
X7945Y14570D1*
X7930Y14540D1*
X7920Y14510D1*
X7910Y14480D1*
X7901Y14450D1*
X7896Y14420D1*
X7897Y14390D1*
X7903Y14360D1*
X7910Y14330D1*
X7914Y14300D1*
Y14270D1*
X7898Y14240D1*
X7876Y14210D1*
X7854Y14180D1*
X7837Y14150D1*
X7823Y14120D1*
X7812Y14090D1*
X7806Y14060D1*
X7802Y14030D1*
X7801Y14000D1*
X7800Y13970D1*
Y13940D1*
Y13910D1*
Y13880D1*
X7799Y13850D1*
X7795Y13820D1*
X7785Y13790D1*
X7770Y13760D1*
X7751Y13730D1*
X7732Y13700D1*
X7719Y13670D1*
X7710Y13640D1*
X7700Y13610D1*
X7691Y13580D1*
X7685Y13550D1*
X7682Y13520D1*
X7681Y13490D1*
Y13460D1*
X7685Y13430D1*
X7695Y13400D1*
X7710Y13370D1*
X7730Y13340D1*
X7749Y13310D1*
X7764Y13280D1*
X7776Y13250D1*
X7785Y13220D1*
X7777Y13190D1*
X7754Y13160D1*
X7733Y13130D1*
X7717Y13100D1*
X7703Y13070D1*
X7692Y13040D1*
X7686Y13010D1*
X7682Y12980D1*
X7681Y12950D1*
X7682Y12920D1*
X7685Y12890D1*
X7695Y12860D1*
X7710Y12830D1*
X7730Y12800D1*
X7750Y12770D1*
X7773Y12740D1*
X7805Y12710D1*
X7847Y12680D1*
X7889Y12650D1*
X7925Y12620D1*
X7956Y12590D1*
X7968Y12560D1*
X7975Y12530D1*
X7978Y12500D1*
X7979Y12470D1*
X7981Y12440D1*
X7985Y12410D1*
X7992Y12380D1*
X8001Y12350D1*
X8014Y12320D1*
X8031Y12290D1*
X8069Y12260D1*
X8118Y12230D1*
X8179Y12200D1*
X8250Y12170D1*
X8460Y15080D2*
X8490Y15050D1*
X9960Y15080D2*
X9930Y15050D1*
X9990Y15080D2*
X10049Y15050D1*
X10098Y15020D1*
X10145Y14990D1*
X10200D1*
X10222Y14960D1*
X10243Y14930D1*
X10262Y14900D1*
X10275Y14870D1*
X10283Y14840D1*
X10288Y14810D1*
X10294Y14780D1*
X10305Y14750D1*
X10322Y14720D1*
X10356Y14690D1*
X10392Y14660D1*
X10424Y14630D1*
X10453Y14600D1*
X10475Y14570D1*
X10488Y14540D1*
X10496Y14510D1*
X10504Y14480D1*
X10515Y14450D1*
X10530Y14420D1*
X10516Y14390D1*
X10508Y14360D1*
X10503Y14330D1*
Y14300D1*
X10505Y14270D1*
X10522Y14240D1*
X10544Y14210D1*
X10566Y14180D1*
X10583Y14150D1*
X10597Y14120D1*
X10608Y14090D1*
X10614Y14060D1*
X10618Y14030D1*
X10619Y14000D1*
X10620Y13970D1*
Y13940D1*
Y13910D1*
Y13880D1*
X10621Y13850D1*
X10625Y13820D1*
X10635Y13790D1*
X10650Y13760D1*
X10671Y13730D1*
X10693Y13700D1*
X10712Y13670D1*
X10725Y13640D1*
X10733Y13610D1*
X10737Y13580D1*
X10739Y13550D1*
X10740Y13520D1*
Y13490D1*
X10739Y13460D1*
X10735Y13430D1*
X10725Y13400D1*
X10710Y13370D1*
X10690Y13340D1*
X10671Y13310D1*
X10656Y13280D1*
X10644Y13250D1*
X10635Y13220D1*
X10643Y13190D1*
X10666Y13160D1*
X10687Y13130D1*
X10703Y13100D1*
X10717Y13070D1*
X10728Y13040D1*
X10734Y13010D1*
X10738Y12980D1*
X10739Y12950D1*
X10738Y12920D1*
X10735Y12890D1*
X10725Y12860D1*
X10710Y12830D1*
X10690Y12800D1*
X10670Y12770D1*
X10647Y12740D1*
X10615Y12710D1*
X10573Y12680D1*
X10531Y12650D1*
X10495Y12620D1*
X10464Y12590D1*
X10452Y12560D1*
X10445Y12530D1*
X10442Y12500D1*
X10441Y12470D1*
X10439Y12440D1*
X10435Y12410D1*
X10428Y12380D1*
X10419Y12350D1*
X10406Y12320D1*
X10389Y12290D1*
X10351Y12260D1*
X10302Y12230D1*
X10241Y12200D1*
X10170Y12170D1*
X8400Y14990D2*
X8350Y14960D1*
X8307Y14930D1*
X8272Y14900D1*
X8243Y14870D1*
X8230Y14840D1*
X8219Y14810D1*
X8206Y14780D1*
X8190Y14750D1*
X8201Y14720D1*
X8200Y14690D1*
X8164Y14660D1*
X8128Y14630D1*
X8095Y14600D1*
X8063Y14570D1*
X8037Y14540D1*
X8018Y14510D1*
X8003Y14480D1*
X7992Y14450D1*
X7986Y14420D1*
X7984Y14390D1*
X7986Y14360D1*
X7995Y14330D1*
X8010Y14300D1*
X8030Y14270D1*
X8051Y14240D1*
X8070Y14210D1*
X8031Y14180D1*
X7991Y14150D1*
X7952Y14120D1*
X7921Y14090D1*
X7900Y14060D1*
X7884Y14030D1*
X7873Y14000D1*
X7867Y13970D1*
Y13940D1*
X7873Y13910D1*
X7883Y13880D1*
X7897Y13850D1*
X7920Y13820D1*
X7950Y13790D1*
X7922Y13760D1*
X7904Y13730D1*
X7890Y13700D1*
X7800D1*
X7790Y13670D1*
X7781Y13640D1*
X7775Y13610D1*
X7772Y13580D1*
X7771Y13550D1*
X7770Y13520D1*
Y13490D1*
X7771Y13460D1*
X7775Y13430D1*
X7785Y13400D1*
X7800Y13370D1*
X7819Y13340D1*
X7838Y13310D1*
X7850Y13280D1*
X7860Y13250D1*
X7950D1*
X7943Y13220D1*
X7919Y13190D1*
X7888Y13160D1*
X7854Y13130D1*
X7824Y13100D1*
X7801Y13070D1*
X7786Y13040D1*
X7777Y13010D1*
X7773Y12980D1*
X7771Y12950D1*
Y12920D1*
X7772Y12890D1*
X7775Y12860D1*
X7791Y12830D1*
X7814Y12800D1*
X7835Y12770D1*
X7849Y12740D1*
X7860Y12710D1*
X8100D1*
X8090Y12680D1*
X8078Y12650D1*
X8065Y12620D1*
X8048Y12590D1*
X8031Y12560D1*
X8019Y12530D1*
X8020Y12500D1*
X8035Y12470D1*
X8051Y12440D1*
X8066Y12410D1*
X8082Y12380D1*
X8104Y12350D1*
X8177Y12320D1*
X8291Y12290D1*
X8430Y12260D1*
X8520Y14990D2*
X8550Y14960D1*
X9900Y14990D2*
X9870Y14960D1*
X10020Y14990D2*
X10070Y14960D1*
X10113Y14930D1*
X10148Y14900D1*
X10177Y14870D1*
X10190Y14840D1*
X10201Y14810D1*
X10214Y14780D1*
X10230Y14750D1*
X10219Y14720D1*
X10220Y14690D1*
X10256Y14660D1*
X10292Y14630D1*
X10327Y14600D1*
X10362Y14570D1*
X10394Y14540D1*
X10421Y14510D1*
X10431Y14480D1*
X10436Y14450D1*
X10438Y14420D1*
Y14390D1*
X10435Y14360D1*
X10425Y14330D1*
X10410Y14300D1*
X10390Y14270D1*
X10369Y14240D1*
X10350Y14210D1*
X10389Y14180D1*
X10429Y14150D1*
X10468Y14120D1*
X10502Y14090D1*
X10517Y14060D1*
X10529Y14030D1*
X10539Y14000D1*
X10547Y13970D1*
X10543Y13940D1*
X10538Y13910D1*
X10534Y13880D1*
X10532Y13850D1*
X10531Y13820D1*
X10530Y13790D1*
Y13760D1*
Y13730D1*
Y13700D1*
X10620D1*
X10630Y13670D1*
X10639Y13640D1*
X10645Y13610D1*
X10648Y13580D1*
X10649Y13550D1*
X10650Y13520D1*
Y13490D1*
X10649Y13460D1*
X10645Y13430D1*
X10635Y13400D1*
X10620Y13370D1*
X10601Y13340D1*
X10582Y13310D1*
X10570Y13280D1*
X10560Y13250D1*
X10470D1*
X10477Y13220D1*
X10501Y13190D1*
X10532Y13160D1*
X10566Y13130D1*
X10596Y13100D1*
X10619Y13070D1*
X10634Y13040D1*
X10643Y13010D1*
X10647Y12980D1*
X10649Y12950D1*
Y12920D1*
X10648Y12890D1*
X10645Y12860D1*
X10629Y12830D1*
X10606Y12800D1*
X10585Y12770D1*
X10571Y12740D1*
X10560Y12710D1*
X10320D1*
X10330Y12680D1*
X10342Y12650D1*
X10355Y12620D1*
X10372Y12590D1*
X10389Y12560D1*
X10401Y12530D1*
X10400Y12500D1*
X10385Y12470D1*
X10369Y12440D1*
X10354Y12410D1*
X10338Y12380D1*
X10316Y12350D1*
X10243Y12320D1*
X10129Y12290D1*
X9990Y12260D1*
X9660Y14780D2*
X9606Y14750D1*
X9562Y14720D1*
X9525Y14690D1*
X9494Y14660D1*
X9469Y14630D1*
X9459Y14600D1*
X9454Y14570D1*
X9452Y14540D1*
X9451Y14510D1*
X9450Y14480D1*
X9720Y14780D2*
X9750Y14750D1*
X9719Y14720D1*
X9676Y14690D1*
X9627Y14660D1*
X9586Y14630D1*
X9556Y14600D1*
X9543Y14570D1*
X9531Y14540D1*
X9520Y14510D1*
X9510Y14480D1*
X8790Y14720D2*
Y14690D1*
Y14660D1*
Y14630D1*
X8789Y14600D1*
X8785Y14570D1*
X8778Y14540D1*
X8757Y14510D1*
X8687Y14480D1*
X8584Y14450D1*
X8480Y14420D1*
X8396Y14390D1*
X8362Y14360D1*
X8350Y14330D1*
X8344Y14300D1*
X8342Y14270D1*
X8341Y14240D1*
X8340Y14210D1*
Y14180D1*
Y14150D1*
Y14120D1*
Y14090D1*
Y14060D1*
Y14030D1*
X8339Y14000D1*
X8335Y13970D1*
X8319Y13940D1*
X8296Y13910D1*
X8274Y13880D1*
X8256Y13850D1*
X8239Y13820D1*
X8220Y13790D1*
X8236Y13760D1*
X8254Y13730D1*
X8279Y13700D1*
X8310Y13670D1*
X8850Y14720D2*
Y14690D1*
Y14660D1*
Y14630D1*
X8851Y14600D1*
X8855Y14570D1*
X8865Y14540D1*
X8881Y14510D1*
X8904Y14480D1*
X8930Y14450D1*
X8949Y14420D1*
X8961Y14390D1*
X8966Y14360D1*
X8967Y14330D1*
X8965Y14300D1*
X8950Y14270D1*
X8917Y14240D1*
X8880Y14210D1*
X9900Y14510D2*
Y14480D1*
Y14450D1*
Y14420D1*
X9902Y14390D1*
X9907Y14360D1*
X9925Y14330D1*
X9948Y14300D1*
X9980Y14270D1*
X10026Y14240D1*
X10080Y14210D1*
X9960Y14510D2*
X9965Y14480D1*
X9972Y14450D1*
X9983Y14420D1*
X9995Y14390D1*
X10031Y14360D1*
X10079Y14330D1*
X10126Y14300D1*
X10165Y14270D1*
X10200Y14240D1*
X10170Y14210D1*
X8760Y14420D2*
X8764Y14390D1*
X8772Y14360D1*
X8807Y14330D1*
X8850Y14300D1*
X8880Y14420D2*
X8876Y14390D1*
X8868Y14360D1*
X8833Y14330D1*
X8790Y14300D1*
X8430Y14330D2*
Y14300D1*
Y14270D1*
Y14240D1*
Y14210D1*
Y14180D1*
Y14150D1*
Y14120D1*
Y14090D1*
Y14060D1*
Y14030D1*
X8431Y14000D1*
X8435Y13970D1*
X8452Y13940D1*
X8514Y13910D1*
X8611Y13880D1*
X8730Y13850D1*
X8670Y14330D2*
X8674Y14300D1*
X8690Y14270D1*
X8723Y14240D1*
X8760Y14210D1*
X9450Y14060D2*
Y14030D1*
Y14000D1*
X9451Y13970D1*
X9455Y13940D1*
X9472Y13910D1*
X9496Y13880D1*
X9523Y13850D1*
X9555Y13820D1*
X9592Y13790D1*
X9628Y13760D1*
X9660Y13730D1*
X9540Y14060D2*
Y14030D1*
X9542Y14000D1*
X9548Y13970D1*
X9573Y13940D1*
X9612Y13910D1*
X9659Y13880D1*
X9705Y13850D1*
X9728Y13820D1*
X9729Y13790D1*
X9725Y13760D1*
X9720Y13730D1*
X8700Y13910D2*
Y13880D1*
X8550Y13850D1*
X8940Y13910D2*
X8954Y13880D1*
X8962Y13850D1*
X8967Y13820D1*
X8969Y13790D1*
X8968Y13760D1*
X8965Y13730D1*
X8944Y13700D1*
X8914Y13670D1*
X8885Y13640D1*
X8863Y13610D1*
X8856Y13580D1*
X8853Y13550D1*
X8851Y13520D1*
X8850Y13490D1*
Y13460D1*
Y13430D1*
Y13400D1*
Y13370D1*
Y13340D1*
Y13310D1*
Y13280D1*
Y13250D1*
Y13220D1*
Y13190D1*
Y13160D1*
Y13130D1*
Y13100D1*
Y13070D1*
Y13040D1*
Y13010D1*
Y12980D1*
Y12950D1*
Y12920D1*
X8940D1*
X8945Y12890D1*
X8952Y12860D1*
X8960Y12830D1*
X8965Y12800D1*
X8966Y12770D1*
X8965Y12740D1*
X8948Y12710D1*
X8925Y12680D1*
X8900Y12650D1*
X8880Y12620D1*
X8865Y12590D1*
X8857Y12560D1*
X8853Y12530D1*
X8851Y12500D1*
X8850Y12470D1*
Y12440D1*
Y12410D1*
X10230Y13910D2*
X10214Y13880D1*
X10196Y13850D1*
X10174Y13820D1*
X10149Y13790D1*
X10130Y13760D1*
X10118Y13730D1*
X10110Y13700D1*
X9990D1*
Y13670D1*
X10290Y13910D2*
Y13880D1*
X10289Y13850D1*
X10285Y13820D1*
X10275Y13790D1*
X10259Y13760D1*
X10234Y13730D1*
X10203Y13700D1*
X10170Y13670D1*
X8310Y13880D2*
X8311Y13850D1*
X8315Y13820D1*
X8325Y13790D1*
X8342Y13760D1*
X8368Y13730D1*
X8400Y13700D1*
X8430Y13880D2*
X8436Y13850D1*
X8446Y13820D1*
X8460Y13790D1*
X8435Y13760D1*
X8405Y13730D1*
X8370Y13700D1*
X8760Y13880D2*
Y13850D1*
Y13820D1*
X8764Y13790D1*
X8772Y13760D1*
X8807Y13730D1*
X8850Y13700D1*
X8880Y13880D2*
Y13850D1*
Y13820D1*
X8876Y13790D1*
X8868Y13760D1*
X8833Y13730D1*
X8790Y13700D1*
X8580Y13730D2*
X8520Y13700D1*
X8460Y13670D1*
X8640Y13730D2*
X8693Y13700D1*
X8735Y13670D1*
X8768Y13640D1*
X8779Y13610D1*
X8786Y13580D1*
X8788Y13550D1*
X8789Y13520D1*
X8790Y13490D1*
Y13460D1*
Y13430D1*
Y13400D1*
Y13370D1*
Y13340D1*
Y13310D1*
Y13280D1*
Y13250D1*
Y13220D1*
Y13190D1*
Y13160D1*
Y13130D1*
Y13100D1*
Y13070D1*
Y13040D1*
X8788Y13010D1*
X8784Y12980D1*
X8762Y12950D1*
X8706Y12920D1*
X8640Y12890D1*
X9630Y13370D2*
X9571Y13340D1*
X9526Y13310D1*
X9497Y13280D1*
X9477Y13250D1*
X9464Y13220D1*
X9456Y13190D1*
X9453Y13160D1*
X9451Y13130D1*
X9450Y13100D1*
Y13070D1*
X9750Y13370D2*
X9735Y13340D1*
X9714Y13310D1*
X9668Y13280D1*
X9619Y13250D1*
X9575Y13220D1*
X9556Y13190D1*
X9542Y13160D1*
X9530Y13130D1*
X9520Y13100D1*
X9510Y13070D1*
X8310Y13250D2*
X8281Y13220D1*
X8259Y13190D1*
X8240Y13160D1*
X8220Y13130D1*
X8236Y13100D1*
X8254Y13070D1*
X8277Y13040D1*
X8307Y13010D1*
X8347Y12980D1*
X8402Y12950D1*
X8461Y12920D1*
X8511Y12890D1*
X8552Y12860D1*
X8591Y12830D1*
X8624Y12800D1*
X8648Y12770D1*
X8667Y12740D1*
X8688Y12710D1*
X8714Y12680D1*
X8739Y12650D1*
X8760Y12620D1*
X8775Y12590D1*
X8783Y12560D1*
X8787Y12530D1*
X8789Y12500D1*
X8790Y12470D1*
Y12440D1*
Y12410D1*
X8460Y13250D2*
X8488Y13220D1*
X8508Y13190D1*
X8514Y13160D1*
X8518Y13130D1*
X8521Y13100D1*
X8524Y13070D1*
X8542Y13040D1*
X8566Y13010D1*
X8595Y12980D1*
X8634Y12950D1*
X8691Y12920D1*
X8760Y12890D1*
X9990Y13250D2*
X10005Y13220D1*
X10044Y13190D1*
X10091Y13160D1*
X10135Y13130D1*
X10168Y13100D1*
X10190Y13070D1*
X10206Y13040D1*
X10218Y13010D1*
X10225Y12980D1*
X10230Y12950D1*
X10170Y13250D2*
X10194Y13220D1*
X10222Y13190D1*
X10249Y13160D1*
X10269Y13130D1*
X10280Y13100D1*
X10286Y13070D1*
X10288Y13040D1*
X10289Y13010D1*
X10290Y12980D1*
Y12950D1*
X8370Y13190D2*
X8346Y13160D1*
X8327Y13130D1*
X8320Y13100D1*
X8357Y13070D1*
X8400Y13040D1*
Y13190D2*
X8430Y13160D1*
X8460Y13130D1*
X8429Y13100D1*
X8389Y13070D1*
X8340Y13040D1*
X8760Y12830D2*
X8764Y12800D1*
X8772Y12770D1*
X8807Y12740D1*
X8850Y12710D1*
X8880Y12830D2*
X8876Y12800D1*
X8868Y12770D1*
X8833Y12740D1*
X8790Y12710D1*
X9660Y12800D2*
X9675Y12770D1*
X9714Y12740D1*
X9761Y12710D1*
X9806Y12680D1*
X9841Y12650D1*
X9867Y12620D1*
X9884Y12590D1*
X9893Y12560D1*
X9900Y12530D1*
X9840Y12800D2*
X9864Y12770D1*
X9892Y12740D1*
X9919Y12710D1*
X9939Y12680D1*
X9950Y12650D1*
X9956Y12620D1*
X9958Y12590D1*
X9959Y12560D1*
X9960Y12530D1*
X8460Y12380D2*
X8428Y12350D1*
X8372Y12320D1*
X8277Y12290D1*
X8160Y12260D1*
X8520Y12380D2*
X8525Y12350D1*
X8532Y12320D1*
X8540Y12290D1*
X8548Y12260D1*
X8559Y12230D1*
X8580Y12200D1*
X8608Y12170D1*
X8645Y12140D1*
X8710Y12110D1*
X8824Y12080D1*
X8970Y12050D1*
X9900Y12380D2*
X9895Y12350D1*
X9888Y12320D1*
X9880Y12290D1*
X9872Y12260D1*
X9861Y12230D1*
X9840Y12200D1*
X9812Y12170D1*
X9775Y12140D1*
X9710Y12110D1*
X9596Y12080D1*
X9450Y12050D1*
X9960Y12380D2*
X9992Y12350D1*
X10048Y12320D1*
X10143Y12290D1*
X10260Y12260D1*
X8340Y12200D2*
X8310Y12170D1*
X8430Y12200D2*
X8478Y12170D1*
X8515Y12140D1*
X8541Y12110D1*
X8566Y12080D1*
X8597Y12050D1*
X8647Y12020D1*
X8737Y11990D1*
X8882Y11960D1*
X9060Y11930D1*
X9930Y12200D2*
X9921Y12170D1*
X9904Y12140D1*
X9883Y12110D1*
X9857Y12080D1*
X9824Y12050D1*
X9774Y12020D1*
X9684Y11990D1*
X9538Y11960D1*
X9360Y11930D1*
X10080Y12200D2*
X10110Y12170D1*
X9300Y12110D2*
X9315Y12080D1*
X9336Y12050D1*
X9368Y12020D1*
X9418Y11990D1*
X9480Y11960D1*
X9420Y12110D2*
Y12080D1*
X9720Y12050D1*
M02*
