G04 DipTrace 2.4.0.2*
%INBottom.gbr*%
%MOIN*%
%ADD14C,0.02*%
%ADD15C,0.01*%
%ADD16C,0.0354*%
%ADD17C,0.015*%
%ADD18C,0.04*%
%ADD20C,0.078*%
%ADD21C,0.08*%
%ADD26R,0.0512X0.0591*%
%ADD27R,0.0709X0.063*%
%ADD29C,0.08*%
%ADD32C,0.06*%
%FSLAX44Y44*%
G04*
G70*
G90*
G75*
G01*
%LNBottom*%
%LPD*%
X11750Y7520D2*
D14*
Y7570D1*
X12750Y8570D1*
Y9670D1*
X12800Y9720D1*
X11750Y7520D2*
X13194Y6076D1*
Y5520D1*
X11750Y7570D2*
X12800Y8620D1*
X13800D1*
X12500Y14120D2*
D15*
X12348D1*
X12139Y14329D1*
X12800Y11920D2*
D14*
Y12050D1*
X13620Y12870D1*
X13500D1*
X13550Y13870D2*
Y14390D1*
X13570D1*
X5400Y14970D2*
Y14770D1*
X5350Y14720D1*
X7200Y10020D2*
D16*
X7100D1*
X6684Y9604D1*
X6352D1*
X11350Y9920D2*
D18*
X11450D1*
D16*
X11766Y9604D1*
X12139D1*
D14*
Y8909D1*
X11050Y7820D1*
Y5220D1*
X10750Y4920D1*
X9650Y6020D1*
X8950D1*
X6352Y13541D2*
X6271D1*
X5750Y13020D1*
Y12520D1*
X5550Y12320D1*
X4650D1*
X4500Y12470D1*
Y14870D1*
X4552D1*
X4652Y14970D1*
X4750Y14870D2*
X4552D1*
X9639Y9077D2*
X9667D1*
X9550Y8960D1*
Y8940D1*
X8140Y7530D1*
Y5470D1*
Y5280D1*
X8750Y4670D1*
X8852Y9077D2*
X8880D1*
Y8940D1*
X7680Y7740D1*
Y6230D1*
Y4520D1*
X7750D1*
Y4670D1*
X10750Y4920D2*
Y4670D1*
X8850Y5470D2*
X8140D1*
X7040Y6230D2*
X7680D1*
X11270Y14320D2*
Y14410D1*
X11976Y15116D1*
X12139D1*
Y13541D2*
X11969D1*
X11270Y14240D1*
Y14320D1*
X4750Y7520D2*
D15*
X4600Y7670D1*
Y10970D1*
X4750Y11120D1*
X5400D1*
X6246Y11966D1*
X6352D1*
Y10391D2*
D14*
X6331D1*
X5750Y9810D1*
Y9120D1*
X5402Y5520D2*
Y6272D1*
X6650Y7520D1*
X6750D1*
X9450Y12300D2*
X7630D1*
X6509Y11179D1*
X6352D1*
X7500Y11170D2*
X8600D1*
X10480Y9290D1*
Y9023D1*
X10426Y9077D1*
X7250Y10620D2*
X7650D1*
X8050Y10220D1*
Y9091D1*
X8064Y9077D1*
X6352Y15116D2*
X5256Y14020D1*
X5150D1*
X7750Y11720D2*
X8950D1*
X10800Y9870D1*
Y9570D1*
X11214Y9156D1*
Y9077D1*
X7277D2*
Y8680D1*
X5150D1*
Y8620D1*
X6352Y14329D2*
X6259D1*
X5050Y13120D1*
Y13020D1*
X5150D1*
X13550Y14972D2*
X13402D1*
X12900Y14470D1*
Y12727D1*
X12139Y11966D1*
X6352Y12754D2*
X9566D1*
X11550Y10770D1*
X12600D1*
X12850Y10520D1*
Y10220D1*
X13500Y9570D1*
Y9470D1*
X12139Y12754D2*
X12084D1*
X11500Y12170D1*
Y11770D1*
X11700Y11570D1*
X12600D1*
X13500Y10670D1*
Y10470D1*
X12450Y10120D2*
D17*
X12411D1*
X12139Y10391D1*
X11700Y11170D2*
X12130D1*
X12139Y11179D1*
X12400Y5520D2*
X12446D1*
D29*
X8850Y7320D3*
X4750Y7520D3*
Y4520D3*
X6750D3*
X11750Y7520D3*
Y4520D3*
X13750Y7520D3*
Y4520D3*
X10350Y7320D3*
D18*
X4750Y14870D3*
D32*
X11350Y9920D3*
X7200Y10020D3*
D18*
X7250Y10620D3*
X7500Y11170D3*
X7750Y11720D3*
X5350Y14720D3*
X13570Y14390D3*
X11270Y14320D3*
X8950Y6020D3*
X5750Y9120D3*
X12500Y14120D3*
X9450Y12300D3*
X7040Y6230D3*
X8850Y5470D3*
X12450Y10120D3*
X12800Y9720D3*
X11700Y11170D3*
X6100Y5520D3*
X12400D3*
X13800Y8620D3*
X12800Y11920D3*
D29*
X6750Y7520D3*
G36*
X11804Y15293D2*
Y14939D1*
X12474D1*
Y15293D1*
X11804D1*
G37*
G36*
Y14506D2*
Y14151D1*
X12474D1*
Y14506D1*
X11804D1*
G37*
G36*
Y13718D2*
Y13364D1*
X12474D1*
Y13718D1*
X11804D1*
G37*
G36*
Y12931D2*
Y12577D1*
X12474D1*
Y12931D1*
X11804D1*
G37*
G36*
Y12143D2*
Y11789D1*
X12474D1*
Y12143D1*
X11804D1*
G37*
G36*
Y11356D2*
Y11002D1*
X12474D1*
Y11356D1*
X11804D1*
G37*
G36*
Y10569D2*
Y10214D1*
X12474D1*
Y10569D1*
X11804D1*
G37*
G36*
Y9781D2*
Y9427D1*
X12474D1*
Y9781D1*
X11804D1*
G37*
G36*
X6017D2*
Y9427D1*
X6686D1*
Y9781D1*
X6017D1*
G37*
G36*
Y10569D2*
Y10214D1*
X6686D1*
Y10569D1*
X6017D1*
G37*
G36*
Y11356D2*
Y11002D1*
X6686D1*
Y11356D1*
X6017D1*
G37*
G36*
Y12143D2*
Y11789D1*
X6686D1*
Y12143D1*
X6017D1*
G37*
G36*
Y12931D2*
Y12577D1*
X6686D1*
Y12931D1*
X6017D1*
G37*
G36*
Y13718D2*
Y13364D1*
X6686D1*
Y13718D1*
X6017D1*
G37*
G36*
Y14506D2*
Y14151D1*
X6686D1*
Y14506D1*
X6017D1*
G37*
G36*
Y15293D2*
Y14939D1*
X6686D1*
Y15293D1*
X6017D1*
G37*
G36*
X7454Y9411D2*
X7100D1*
Y8742D1*
X7454D1*
Y9411D1*
G37*
G36*
X8241D2*
X7887D1*
Y8742D1*
X8241D1*
Y9411D1*
G37*
G36*
X9029D2*
X8674D1*
Y8742D1*
X9029D1*
Y9411D1*
G37*
G36*
X9816D2*
X9462D1*
Y8742D1*
X9816D1*
Y9411D1*
G37*
G36*
X10604D2*
X10249D1*
Y8742D1*
X10604D1*
Y9411D1*
G37*
G36*
X11391D2*
X11037D1*
Y8742D1*
X11391D1*
Y9411D1*
G37*
D20*
X13500Y11870D3*
D21*
Y12870D3*
D27*
X13550Y13870D3*
Y14972D3*
D20*
X5150Y8620D3*
Y9620D3*
Y10620D3*
Y11620D3*
Y13020D3*
D21*
Y14020D3*
D26*
X5400Y14970D3*
X4652D3*
X6150Y5520D3*
X5402D3*
X13194D3*
X12446D3*
D20*
X13500Y9470D3*
D21*
Y10470D3*
D20*
X10750Y4670D3*
X9750D3*
X8750D3*
X7750D3*
M02*
