M48
INCH
T01C0.0191
T02C0.03
T03C0.0402
T04C0.042
%
T01
X+004750Y+014870
X+005350Y+014720
X+007750Y+011720
X+007500Y+011170
X+007250Y+010620
X+005750Y+009120
X+007400Y+006220
X+006100Y+005520
X+008850Y+005470
X+008950Y+006020
X+012400Y+005520
X+013800Y+008620
X+012800Y+009720
X+012450Y+010120
X+011700Y+011170
X+012800Y+011920
X+013450Y+013770
X+012500Y+014120
X+011450Y+014720
X+009700Y+011720
T02
X+011350Y+009920
X+007200Y+010020
T03
X+013500Y+011870
X+013500Y+012870
X+013500Y+010470
X+013500Y+009470
X+010750Y+004670
X+009750Y+004670
X+008750Y+004670
X+007750Y+004670
X+005150Y+008620
X+005150Y+009620
X+005150Y+010620
X+005150Y+011620
X+005150Y+013020
X+005150Y+014020
T04
X+008850Y+007320
X+010350Y+007320
X+011750Y+007520
X+013750Y+007520
X+013750Y+004520
X+011750Y+004520
X+006750Y+004520
X+004750Y+004520
X+004750Y+007520
X+006750Y+007520
T00
M30
