G04 DipTrace 2.4.0.2*
%INTop.gbr*%
%MOIN*%
%ADD14C,0.03*%
%ADD15C,0.015*%
%ADD16C,0.02*%
%ADD19C,0.04*%
%ADD21C,0.078*%
%ADD22C,0.08*%
%ADD23R,0.0591X0.0512*%
%ADD24R,0.0512X0.0591*%
%ADD26R,0.0374X0.0846*%
%ADD27R,0.128X0.0846*%
%ADD29C,0.08*%
%ADD32C,0.06*%
%FSLAX44Y44*%
G04*
G70*
G90*
G75*
G01*
%LNTop*%
%LPD*%
X11750Y7520D2*
D14*
X11800D1*
X10900Y6620D1*
X9450D1*
X8800Y7270D1*
X8850Y7320D1*
X12800Y11920D2*
D15*
Y11768D1*
X12600Y11568D1*
Y10820D2*
X12400D1*
X12850Y10370D1*
Y9670D1*
X12800Y9720D1*
X12500Y14120D2*
Y13670D1*
X13300Y12870D1*
X13500D1*
X13450Y13770D2*
Y13920D1*
X13050Y14320D1*
X13798D2*
Y14022D1*
X14050Y13770D1*
Y8870D1*
X13800Y8620D1*
X8454Y8268D2*
D14*
Y7666D1*
X8800Y7320D1*
X8850D1*
X11100Y8366D2*
Y8220D1*
X11800Y7520D1*
X8850Y7320D2*
Y7470D1*
X6800D1*
X6750Y7520D1*
D16*
X7000D1*
X6200Y8320D1*
Y8472D1*
X6150D1*
X5750Y9120D2*
D15*
X6050D1*
X6150Y9220D1*
X8454Y8268D2*
D14*
X8300D1*
Y11920D1*
X8050Y12170D1*
Y12470D1*
X5350Y14720D2*
D16*
X6150D1*
X8100Y12770D1*
Y12470D1*
X8050D1*
X7200Y10020D2*
D14*
Y9523D1*
X8454Y8268D1*
X10350Y7320D2*
X10266D1*
Y8268D1*
X11100Y9114D2*
X10844D1*
X10250Y8520D1*
Y8284D1*
X10266Y8268D1*
X13198Y6520D2*
D16*
Y6718D1*
X14000Y7520D1*
X13750D1*
X11350Y9920D2*
X11200D1*
Y10120D1*
X12600Y8720D1*
Y6520D1*
X12450D1*
X6148D2*
X6398Y6770D1*
X8250D1*
X8950Y6070D1*
Y6020D1*
X5400Y6520D2*
Y6620D1*
X4750Y7270D1*
Y7520D1*
X10398Y12470D2*
X10700D1*
Y10570D1*
X11350Y9920D1*
X10398Y11620D2*
X10600D1*
Y12470D1*
X10398D1*
X9700Y11720D2*
Y11620D1*
X9650D1*
X6148Y6520D2*
X6300D1*
X7350Y5470D1*
X7796D1*
X8850D2*
X8544D1*
X7400Y6220D2*
X7796D1*
X8544D2*
X8750D1*
X8950Y6020D1*
X4750Y14870D2*
X4800D1*
X5050Y15120D1*
X7200D1*
X9650Y12670D1*
Y12470D1*
X13750Y7520D2*
Y7270D1*
X13700Y7220D1*
Y7620D1*
X13300Y8020D1*
Y8670D1*
X11200Y10770D1*
Y13970D1*
X6148Y6520D2*
D15*
Y6418D1*
X5400Y5670D1*
Y5520D1*
X6100D2*
X6148D1*
X11450Y14720D2*
D16*
Y14718D1*
X11200D1*
X9360Y10552D2*
D14*
X10718D1*
X11350Y9920D1*
X9360Y10552D2*
Y8268D1*
Y10552D2*
X9000D1*
Y12268D1*
X8798Y12470D1*
X9750Y4620D2*
D16*
Y4670D1*
X7500Y11170D2*
X5700D1*
X5150Y10620D1*
X7250D2*
X6150D1*
X5150Y9620D1*
X7750Y11720D2*
X5150D1*
Y11620D1*
X12450Y10120D2*
D15*
X12100Y10470D1*
Y12020D1*
X12450Y12370D1*
X13000D1*
X13500Y11870D1*
X11700Y11170D2*
Y13970D1*
X12650Y14920D1*
X14000D1*
X14300Y14620D1*
Y6626D1*
X13194Y5520D1*
D29*
X8850Y7320D3*
X4750Y7520D3*
Y4520D3*
X6750D3*
X11750Y7520D3*
Y4520D3*
X13750Y7520D3*
Y4520D3*
X10350Y7320D3*
D19*
X4750Y14870D3*
D32*
X11350Y9920D3*
X7200Y10020D3*
D19*
X7250Y10620D3*
X7500Y11170D3*
X7750Y11720D3*
X5350Y14720D3*
X13450Y13770D3*
X11450Y14720D3*
X8950Y6020D3*
X5750Y9120D3*
X12500Y14120D3*
X9700Y11720D3*
X7400Y6220D3*
X8850Y5470D3*
X12450Y10120D3*
X12800Y9720D3*
X11700Y11170D3*
X6100Y5520D3*
X12400D3*
X13800Y8620D3*
X12800Y11920D3*
D29*
X6750Y7520D3*
D21*
X13500Y11870D3*
D22*
Y12870D3*
D23*
X6150Y9220D3*
Y8472D3*
D24*
X9650Y12470D3*
X10398D3*
D26*
X8454Y8268D3*
X9360D3*
X10266D3*
D27*
X9360Y10552D3*
D24*
X5400Y6520D3*
X6148D3*
X12450D3*
X13198D3*
D21*
X5150Y8620D3*
Y9620D3*
Y10620D3*
Y11620D3*
Y13020D3*
D22*
Y14020D3*
D24*
X9650Y11620D3*
X10398D3*
X7796Y6220D3*
X8544D3*
X7796Y5470D3*
X8544D3*
X12446Y5520D3*
X13194D3*
X5400D3*
X6148D3*
D21*
X13500Y9470D3*
D22*
Y10470D3*
D23*
X12600Y10820D3*
Y11568D3*
X11200Y13970D3*
Y14718D3*
D21*
X10750Y4670D3*
X9750D3*
X8750D3*
X7750D3*
D24*
X13050Y14320D3*
X13798D3*
X8050Y12470D3*
X8798D3*
D23*
X11100Y8366D3*
Y9114D3*
M02*
