G04 DipTrace 2.4.0.2*
%INTopMask.gbr*%
%MOIN*%
%ADD20O,0.087X0.085*%
%ADD43R,0.132X0.0886*%
%ADD45R,0.0414X0.0886*%
%ADD47R,0.0552X0.0631*%
%ADD49R,0.0631X0.0552*%
%ADD51C,0.084*%
%ADD53C,0.082*%
%FSLAX44Y44*%
G04*
G70*
G90*
G75*
G01*
%LNTopMask*%
%LPD*%
D53*
X13500Y11870D3*
D51*
Y12870D3*
D49*
X6150Y9220D3*
Y8472D3*
D47*
X9650Y12470D3*
X10398D3*
D45*
X8454Y8268D3*
X9360D3*
X10266D3*
D43*
X9360Y10552D3*
D47*
X5400Y6520D3*
X6148D3*
X12450D3*
X13198D3*
D53*
X5150Y8620D3*
Y9620D3*
Y10620D3*
Y11620D3*
Y13020D3*
D51*
Y14020D3*
D47*
X9650Y11620D3*
X10398D3*
X7796Y6220D3*
X8544D3*
X7796Y5470D3*
X8544D3*
X12446Y5520D3*
X13194D3*
X5400D3*
X6148D3*
D53*
X13500Y9470D3*
D51*
Y10470D3*
D49*
X12600Y10820D3*
Y11568D3*
X11200Y13970D3*
Y14718D3*
D53*
X10750Y4670D3*
X9750D3*
X8750D3*
X7750D3*
D47*
X13050Y14320D3*
X13798D3*
X8050Y12470D3*
X8798D3*
D49*
X11100Y8366D3*
Y9114D3*
D20*
X4755Y7515D3*
X6745Y4515D3*
X4755Y4525D3*
X11755Y7515D3*
X13745Y7525D3*
X11755Y4525D3*
X13745D3*
X6735Y7515D3*
X8855Y7325D3*
X10355D3*
M02*
