G04 DipTrace 2.4.0.2*
%INTopMask.gbr*%
%MOIN*%
%ADD19O,0.087X0.085*%
%ADD41R,0.0473X0.0434*%
%ADD45R,0.0552X0.0631*%
%ADD47R,0.132X0.0886*%
%ADD49R,0.0414X0.0886*%
%ADD51R,0.0434X0.0473*%
%ADD53C,0.084*%
%ADD55C,0.082*%
%FSLAX44Y44*%
G04*
G70*
G90*
G75*
G01*
%LNTopMask*%
%LPD*%
D55*
X13500Y11870D3*
D53*
Y12870D3*
D51*
X6430Y9210D3*
Y9879D3*
D49*
X8454Y8268D3*
X9360D3*
X10266D3*
D47*
X9360Y10552D3*
D45*
X5400Y6520D3*
X6148D3*
X12450D3*
X13198D3*
D55*
X5150Y8620D3*
Y9620D3*
Y10620D3*
Y11620D3*
Y13020D3*
D53*
Y14020D3*
D41*
X9630Y11880D3*
X8961D3*
D45*
X12446Y5520D3*
X13194D3*
X5400D3*
X6148D3*
D55*
X13500Y9470D3*
D53*
Y10470D3*
D51*
X12740Y10680D3*
Y11349D3*
D55*
X10750Y4670D3*
X9750D3*
X8750D3*
X7750D3*
D41*
X8420Y11330D3*
X9089D3*
D51*
X8940Y13110D3*
Y12441D3*
D41*
X6760Y8340D3*
X7429D3*
D51*
X11190Y12080D3*
Y12749D3*
D41*
X7510Y6240D3*
X8179D3*
X7650Y5470D3*
X8319D3*
X13235Y13930D3*
X13905D3*
D19*
X4755Y7515D3*
X6745Y4515D3*
X4755Y4525D3*
X11755Y7515D3*
X13745Y7525D3*
X11755Y4525D3*
X13745D3*
X6735Y7515D3*
X8855Y7325D3*
X10355D3*
M02*
