G04 DipTrace 2.4.0.2*
%INTopSilk.gbr*%
%MOIN*%
%ADD10C,0.0098*%
%ADD25C,0.0154*%
%ADD56C,0.0062*%
%ADD57C,0.0046*%
%ADD58C,0.0093*%
%FSLAX44Y44*%
G04*
G70*
G90*
G75*
G01*
%LNTopSilk*%
%LPD*%
X13008Y11272D2*
D10*
X13992D1*
Y13468D1*
X13008D1*
Y11272D1*
D25*
X8071Y7966D3*
X8061Y8859D2*
D10*
X10659D1*
X8061Y9961D2*
X10659D1*
Y8859D2*
Y9961D1*
X8061Y8859D2*
Y9961D1*
X4658Y8022D2*
X5642D1*
Y12218D1*
X4658D1*
Y8022D1*
Y12422D2*
X5642D1*
Y14618D1*
X4658D1*
Y12422D1*
X13008Y8872D2*
X13992D1*
Y11068D1*
X13008D1*
Y8872D1*
X11348Y4178D2*
X7152D1*
Y5162D1*
X11348D1*
Y4178D1*
X7636Y12214D2*
Y12726D1*
X11356Y7952D2*
X10844D1*
X5431Y4334D2*
D56*
X5603D1*
X5660Y4353D1*
X5680Y4372D1*
X5699Y4410D1*
Y4468D1*
X5680Y4506D1*
X5660Y4525D1*
X5603Y4544D1*
X5431D1*
Y4142D1*
X5822Y4353D2*
X5994D1*
X6052Y4372D1*
X6071Y4391D1*
X6090Y4429D1*
Y4468D1*
X6071Y4506D1*
X6052Y4525D1*
X5994Y4544D1*
X5822D1*
Y4142D1*
X5956Y4353D2*
X6090Y4142D1*
X12450Y4354D2*
X12622D1*
X12679Y4373D1*
X12699Y4392D1*
X12718Y4430D1*
Y4469D1*
X12699Y4507D1*
X12679Y4526D1*
X12622Y4545D1*
X12450D1*
Y4143D1*
X12584Y4354D2*
X12718Y4143D1*
X13109Y4488D2*
X13071Y4526D1*
X13014Y4545D1*
X12937D1*
X12880Y4526D1*
X12841Y4488D1*
Y4450D1*
X12861Y4411D1*
X12880Y4392D1*
X12918Y4373D1*
X13033Y4335D1*
X13071Y4316D1*
X13090Y4296D1*
X13109Y4258D1*
Y4201D1*
X13071Y4163D1*
X13014Y4143D1*
X12937D1*
X12880Y4163D1*
X12841Y4201D1*
X10843Y7228D2*
D57*
X10814Y7199D1*
X10785Y7156D1*
X10757Y7099D1*
X10742Y7027D1*
Y6969D1*
X10757Y6898D1*
X10785Y6840D1*
X10814Y6797D1*
X10843Y6769D1*
X11064Y7127D2*
Y6869D1*
X10935Y6998D2*
X11194D1*
X11286Y7228D2*
X11315Y7199D1*
X11344Y7156D1*
X11373Y7099D1*
X11387Y7027D1*
Y6969D1*
X11373Y6898D1*
X11344Y6840D1*
X11315Y6797D1*
X11286Y6769D1*
X8043Y7128D2*
X8014Y7099D1*
X7985Y7056D1*
X7957Y6999D1*
X7942Y6927D1*
Y6869D1*
X7957Y6798D1*
X7985Y6740D1*
X8014Y6697D1*
X8043Y6669D1*
X8135Y6898D2*
X8301D1*
X8394Y7128D2*
X8423Y7099D1*
X8451Y7056D1*
X8480Y6999D1*
X8494Y6927D1*
Y6869D1*
X8480Y6798D1*
X8451Y6740D1*
X8423Y6697D1*
X8394Y6669D1*
X6302Y13006D2*
D58*
Y13609D1*
X6073Y13006D1*
X5843Y13609D1*
Y13006D1*
X6487Y13609D2*
X6717Y13322D1*
Y13006D1*
X6946Y13609D2*
X6717Y13322D1*
X7132Y13307D2*
X7463D1*
X7649Y13609D2*
Y13006D1*
X7907D1*
X7993Y13035D1*
X8022Y13064D1*
X8051Y13121D1*
Y13207D1*
X8022Y13265D1*
X7993Y13293D1*
X7907Y13322D1*
X7993Y13351D1*
X8022Y13379D1*
X8051Y13436D1*
Y13494D1*
X8022Y13551D1*
X7993Y13580D1*
X7907Y13609D1*
X7649D1*
Y13322D2*
X7907D1*
X8236Y13609D2*
Y13178D1*
X8264Y13092D1*
X8322Y13035D1*
X8408Y13006D1*
X8465D1*
X8551Y13035D1*
X8609Y13092D1*
X8638Y13178D1*
Y13609D1*
X9024D2*
Y13006D1*
X8823Y13609D2*
X9225D1*
X9410D2*
Y13006D1*
X9754D1*
X10312Y13609D2*
X9940D1*
Y13006D1*
X10312D1*
X9940Y13322D2*
X10169D1*
X10498D2*
X10756D1*
X10842Y13351D1*
X10871Y13379D1*
X10900Y13436D1*
Y13494D1*
X10871Y13551D1*
X10842Y13580D1*
X10756Y13609D1*
X10498D1*
Y13006D1*
X10699Y13322D2*
X10900Y13006D1*
X9300Y5665D2*
D56*
X9453Y5263D1*
X9606Y5665D1*
X9729Y5416D2*
X9959D1*
Y5455D1*
X9940Y5493D1*
X9921Y5512D1*
X9882Y5531D1*
X9825D1*
X9787Y5512D1*
X9748Y5474D1*
X9729Y5416D1*
Y5378D1*
X9748Y5321D1*
X9787Y5283D1*
X9825Y5263D1*
X9882D1*
X9921Y5283D1*
X9959Y5321D1*
X10082Y5531D2*
Y5263D1*
Y5416D2*
X10102Y5474D1*
X10140Y5512D1*
X10178Y5531D1*
X10236D1*
X10768Y5569D2*
Y5588D1*
X10787Y5627D1*
X10806Y5646D1*
X10844Y5665D1*
X10921D1*
X10959Y5646D1*
X10978Y5627D1*
X10997Y5588D1*
Y5550D1*
X10978Y5512D1*
X10940Y5455D1*
X10748Y5263D1*
X11016D1*
X11159Y5302D2*
X11140Y5282D1*
X11159Y5263D1*
X11178Y5282D1*
X11159Y5302D1*
X11417Y5665D2*
X11359Y5646D1*
X11321Y5588D1*
X11302Y5493D1*
Y5435D1*
X11321Y5340D1*
X11359Y5282D1*
X11417Y5263D1*
X11455D1*
X11512Y5282D1*
X11550Y5340D1*
X11570Y5435D1*
Y5493D1*
X11550Y5588D1*
X11512Y5646D1*
X11455Y5665D1*
X11417D1*
X11550Y5588D2*
X11321Y5340D1*
X11923Y5531D2*
Y5263D1*
Y5474D2*
X11885Y5512D1*
X11846Y5531D1*
X11789D1*
X11751Y5512D1*
X11713Y5474D1*
X11693Y5416D1*
Y5378D1*
X11713Y5321D1*
X11751Y5283D1*
X11789Y5263D1*
X11846D1*
X11885Y5283D1*
X11923Y5321D1*
X9948Y6665D2*
X9700D1*
Y6263D1*
X9948D1*
X9700Y6474D2*
X9853D1*
X10340Y6608D2*
X10302Y6646D1*
X10244Y6665D1*
X10168D1*
X10110Y6646D1*
X10072Y6608D1*
Y6570D1*
X10091Y6531D1*
X10110Y6512D1*
X10148Y6493D1*
X10263Y6455D1*
X10302Y6436D1*
X10321Y6416D1*
X10340Y6378D1*
Y6321D1*
X10302Y6283D1*
X10244Y6263D1*
X10168D1*
X10110Y6283D1*
X10072Y6321D1*
X10463Y6455D2*
X10636D1*
X10693Y6474D1*
X10712Y6493D1*
X10731Y6531D1*
Y6589D1*
X10712Y6627D1*
X10693Y6646D1*
X10636Y6665D1*
X10463D1*
Y6263D1*
X10855Y6588D2*
X10893Y6608D1*
X10951Y6665D1*
Y6263D1*
X11094Y6569D2*
Y6588D1*
X11113Y6627D1*
X11132Y6646D1*
X11170Y6665D1*
X11247D1*
X11285Y6646D1*
X11304Y6627D1*
X11323Y6588D1*
Y6550D1*
X11304Y6512D1*
X11266Y6455D1*
X11074Y6263D1*
X11342D1*
X11715Y6665D2*
X11466D1*
Y6263D1*
Y6474D2*
X11619D1*
X9350Y6165D2*
Y5763D1*
X9522D1*
X9580Y5783D1*
X9599Y5802D1*
X9618Y5840D1*
Y5897D1*
X9599Y5936D1*
X9580Y5955D1*
X9522Y5974D1*
X9580Y5993D1*
X9599Y6012D1*
X9618Y6050D1*
Y6089D1*
X9599Y6127D1*
X9580Y6146D1*
X9522Y6165D1*
X9350D1*
Y5974D2*
X9522D1*
X9741Y6031D2*
Y5763D1*
Y5916D2*
X9761Y5974D1*
X9799Y6012D1*
X9837Y6031D1*
X9895D1*
X10018Y5916D2*
X10248D1*
Y5955D1*
X10229Y5993D1*
X10210Y6012D1*
X10171Y6031D1*
X10114D1*
X10076Y6012D1*
X10037Y5974D1*
X10018Y5916D1*
Y5878D1*
X10037Y5821D1*
X10076Y5783D1*
X10114Y5763D1*
X10171D1*
X10210Y5783D1*
X10248Y5821D1*
X10601Y6031D2*
Y5763D1*
Y5974D2*
X10563Y6012D1*
X10524Y6031D1*
X10467D1*
X10429Y6012D1*
X10391Y5974D1*
X10371Y5916D1*
Y5878D1*
X10391Y5821D1*
X10429Y5783D1*
X10467Y5763D1*
X10524D1*
X10563Y5783D1*
X10601Y5821D1*
X10724Y6165D2*
Y5763D1*
X10916Y6031D2*
X10724Y5840D1*
X10801Y5916D2*
X10935Y5763D1*
X11154Y6031D2*
X11116Y6012D1*
X11077Y5974D1*
X11058Y5916D1*
Y5878D1*
X11077Y5821D1*
X11116Y5783D1*
X11154Y5763D1*
X11211D1*
X11250Y5783D1*
X11288Y5821D1*
X11307Y5878D1*
Y5916D1*
X11288Y5974D1*
X11250Y6012D1*
X11211Y6031D1*
X11154D1*
X11431D2*
Y5840D1*
X11450Y5783D1*
X11488Y5763D1*
X11546D1*
X11584Y5783D1*
X11641Y5840D1*
Y6031D2*
Y5763D1*
X11822Y6165D2*
Y5840D1*
X11841Y5783D1*
X11880Y5763D1*
X11918D1*
X11765Y6031D2*
X11899D1*
M02*
